<?xml version="1.0" standalone="no"?>
<!DOCTYPE svg PUBLIC "-//W3C//DTD SVG 1.1//EN" "http://www.w3.org/Graphics/SVG/1.1/DTD/svg11.dtd" >
<svg xmlns="http://www.w3.org/2000/svg">
<metadata></metadata>
<defs>
<font id="cera_problack_italic" horiz-adv-x="560" >
<font-face units-per-em="1000" ascent="808" descent="-192" />
<missing-glyph horiz-adv-x="280" />
<glyph horiz-adv-x="0" />
<glyph horiz-adv-x="333" />
<glyph unicode=" "  horiz-adv-x="280" />
<glyph unicode="&#x09;" horiz-adv-x="280" />
<glyph unicode="&#xa0;" horiz-adv-x="280" />
<glyph unicode="!" horiz-adv-x="374" d="M261 264h-140l36 396h208zM164 212q24 0 44.5 -9t35 -24t23 -35.5t8.5 -43.5q0 -24 -8.5 -44.5t-23 -35.5t-35 -23.5t-44.5 -8.5q-51 0 -82.5 32t-31.5 80q0 47 31.5 79.5t82.5 32.5z" />
<glyph unicode="&#x22;" horiz-adv-x="587" d="M233 368h-134l51 292h196zM505 368h-134l51 292h196z" />
<glyph unicode="#" horiz-adv-x="632" d="M304 512h120l26 148h139l-27 -148h93l-25 -144h-93l-14 -76h93l-25 -144h-93l-26 -148h-139l26 148h-120l-26 -148h-139l26 148h-91l25 144h91l14 76h-91l25 144h91l27 148h139zM263 282h120l17 96h-120z" />
<glyph unicode="$" horiz-adv-x="539" d="M412 617q35 -16 62.5 -43t48.5 -64l-126 -85q-17 25 -38.5 41.5t-54.5 16.5q-25 0 -33.5 -8.5t-8.5 -19.5q0 -23 43 -43l66 -31q57 -26 91 -64t34 -96q0 -32 -11.5 -64.5t-35 -60t-58.5 -48t-83 -26.5l-22 -121h-144l25 137q-48 18 -84 52.5t-60 80.5l124 81 q26 -35 57 -57t71 -22q20 0 36 6t16 25q0 16 -14 26.5t-40 22.5l-58 29q-63 30 -93 69.5t-30 94.5q0 37 13.5 69t37 56.5t56.5 40t72 21.5l21 115h144z" />
<glyph unicode="%" horiz-adv-x="845" d="M236 0h-134l537 660h135zM627 320q35 0 65.5 -12.5t52.5 -34.5t34.5 -51t12.5 -62q0 -36 -14.5 -67t-38.5 -54t-56 -36.5t-68 -13.5q-35 0 -65.5 13t-52.5 35t-34.5 51t-12.5 62q0 35 14 66t38 54t56.5 36.5t68.5 13.5zM623 204q-24 0 -36.5 -15.5t-12.5 -35.5 q0 -21 12.5 -34.5t34.5 -13.5q23 0 35.5 15.5t12.5 35.5t-12 34t-34 14zM262 671q35 0 65.5 -12.5t52.5 -34.5t34.5 -51t12.5 -62q0 -36 -14.5 -67t-38.5 -54t-56 -36.5t-68 -13.5q-35 0 -65.5 13t-52.5 35t-34.5 51t-12.5 62q0 35 14 66t38 54t56.5 36.5t68.5 13.5z M258 555q-24 0 -36.5 -15.5t-12.5 -35.5q0 -21 12.5 -34.5t34.5 -13.5q23 0 35.5 15.5t12.5 35.5t-12 34t-34 14z" />
<glyph unicode="&#x26;" horiz-adv-x="706" d="M350 672q39 0 71 -10.5t54.5 -30t35 -46t12.5 -57.5q0 -48 -30 -91t-93 -87l56 -89q26 27 54.5 58t59.5 67l109 -101q-37 -41 -71.5 -79.5t-69.5 -73.5l84 -132h-187l-21 32q-36 -21 -75.5 -32.5t-84.5 -11.5q-41 0 -80.5 10.5t-71 32t-50.5 54.5t-19 79q0 63 39.5 112.5 t119.5 100.5q-15 25 -27 55t-12 62q0 28 11.5 59.5t35.5 57.5t61 43.5t89 17.5zM266 135q29 0 68 22l-69 107q-28 -18 -43.5 -34t-15.5 -39q0 -24 16.5 -40t43.5 -16zM312 501q0 -11 6 -20.5t12 -19.5l2 -4q17 12 26 22.5t9 24.5q0 26 -25 26q-12 0 -21 -7.5t-9 -21.5z" />
<glyph unicode="'" horiz-adv-x="315" d="M233 368h-134l51 292h196z" />
<glyph unicode="(" horiz-adv-x="387" d="M433 639q-61 -31 -103 -79t-68.5 -105t-38 -120t-11.5 -123q0 -51 7.5 -90t21 -69t32.5 -53t41 -42l-83 -91q-75 42 -119 129t-44 215q0 76 18 158.5t56 156.5t97.5 131.5t143.5 84.5z" />
<glyph unicode=")" horiz-adv-x="386" d="M178 742q75 -42 119 -129t44 -215q0 -76 -18 -158.5t-56 -156.5t-97.5 -131.5t-143.5 -84.5l-50 103q61 31 103 79t68 105t38 120t12 123q0 51 -7.5 90t-21 69t-32.5 52.5t-41 42.5z" />
<glyph unicode="*" horiz-adv-x="504" d="M528 557l-101 -54l77 -84l-62 -73l-97 61l-34 -109l-95 17l4 114l-111 -24l-33 90l101 53l-77 85l62 73l96 -61l35 109l95 -17l-5 -114l112 24z" />
<glyph unicode="+" d="M389 395h162l-25 -144h-162l-30 -168h-162l30 168h-163l25 144h163l30 168h162z" />
<glyph unicode="," horiz-adv-x="270" d="M108 -177h-135l57 322h195z" />
<glyph unicode="-" horiz-adv-x="340" d="M303 253h-260l25 144h260z" />
<glyph unicode="." horiz-adv-x="270" d="M112 212q24 0 44.5 -9t35 -24t23 -35.5t8.5 -43.5q0 -24 -8.5 -44.5t-23 -35.5t-35 -23.5t-44.5 -8.5q-51 0 -82.5 32t-31.5 80q0 47 31.5 79.5t82.5 32.5z" />
<glyph unicode="/" horiz-adv-x="700" d="M119 -121h-182l674 901h184z" />
<glyph unicode="0" horiz-adv-x="656" d="M345 552q58 0 110 -20.5t90 -56.5t60.5 -85.5t22.5 -107.5q0 -62 -25 -115.5t-67.5 -93.5t-98.5 -62.5t-118 -22.5q-59 0 -110 20t-89 56t-60 85.5t-22 107.5q0 62 24.5 116t66.5 93.5t98 62.5t118 23zM340 396q-27 0 -50.5 -11t-40 -29.5t-26 -43.5t-9.5 -52 q0 -49 29.5 -82.5t80.5 -33.5q26 0 49.5 9.5t41 27t27.5 42t10 54.5q0 54 -32 86.5t-80 32.5z" />
<glyph unicode="1" horiz-adv-x="531" d="M355 144h123l-25 -144h-430l25 144h135l43 242h-126l27 154h298z" />
<glyph unicode="2" horiz-adv-x="599" d="M319 552q52 0 95 -15.5t74 -42.5t48 -63t17 -76q0 -63 -40 -113.5t-109 -99.5h127l-24 -142h-512l6 35l237 158q30 20 55.5 38t44 36t29 35.5t10.5 36.5q0 26 -18.5 40.5t-48.5 14.5q-22 0 -36.5 -7.5t-22.5 -19.5t-11.5 -27t-3.5 -29v-20h-165q-2 8 -4 20t-2 26 q0 40 18 78.5t51.5 69t80.5 49t104 18.5z" />
<glyph unicode="3" horiz-adv-x="549" d="M543 495l-166 -205q45 -25 76 -71.5t31 -107.5q0 -42 -16.5 -85.5t-50 -78.5t-84 -57.5t-117.5 -22.5q-51 0 -93 13.5t-73.5 37.5t-53 56.5t-32.5 71.5l133 73q23 -51 51 -73t68 -22q43 0 66.5 21.5t23.5 55.5q0 67 -100 67h-94l8 44l141 176h-182l27 152h445z" />
<glyph unicode="4" horiz-adv-x="598" d="M493 142h78l-26 -142h-77l-21 -121h-171l21 121h-326l8 45l268 495h184l-219 -398h110l29 164h171z" />
<glyph unicode="5" horiz-adv-x="561" d="M512 388h-243l-13 -77q10 2 19.5 3t19.5 1q35 0 71 -12.5t65 -37.5t47.5 -62.5t18.5 -86.5q0 -45 -17 -89.5t-51 -80t-85 -57.5t-119 -22q-52 0 -95.5 13.5t-76.5 37.5t-55.5 56.5t-33.5 71.5l133 73q23 -51 54.5 -73t73.5 -22q45 0 69.5 21.5t24.5 55.5q0 67 -99 67 h-155l65 372h409z" />
<glyph unicode="6" horiz-adv-x="570" d="M362 456q34 -6 66 -24t56.5 -45.5t39 -64.5t14.5 -81q0 -56 -23 -102.5t-60.5 -79.5t-85.5 -51.5t-99 -18.5q-48 0 -92 16.5t-77.5 47.5t-53 74.5t-19.5 96.5q0 32 7.5 59.5t21.5 53.5t35.5 53t48.5 57l189 213h212zM288 321q-19 0 -36 -7t-29.5 -19t-20 -29t-7.5 -37 q0 -37 23 -61.5t60 -24.5q38 0 65 26t27 68q0 38 -23 61t-59 23z" />
<glyph unicode="7" horiz-adv-x="540" d="M563 495l-383 -616h-194l325 509h-245l27 152h478z" />
<glyph unicode="8" horiz-adv-x="595" d="M355 671q40 0 80.5 -9t73.5 -29.5t54 -53.5t21 -82q0 -54 -29 -98t-95 -76q89 -50 89 -131q0 -35 -15.5 -71t-46.5 -65t-78 -48t-111 -19q-38 0 -84.5 8.5t-87.5 29.5t-69 56.5t-28 90.5q0 27 8 54t26.5 51.5t47.5 44t71 31.5q-28 24 -43.5 53t-15.5 68q0 35 13.5 70 t42 62.5t72 45t104.5 17.5zM378 191q0 23 -17 42t-51 38q-57 -15 -82.5 -34t-25.5 -49q0 -28 21.5 -45.5t64.5 -17.5q46 0 68 19.5t22 46.5zM353 537q-32 0 -52.5 -16.5t-20.5 -43.5q0 -19 12.5 -34.5t41.5 -35.5q40 14 65.5 31t25.5 44q0 24 -20.5 39.5t-51.5 15.5z" />
<glyph unicode="9" horiz-adv-x="569" d="M310 552q48 0 92 -17t77.5 -47.5t53 -74t19.5 -96.5q0 -32 -7.5 -59t-21.5 -53.5t-35.5 -53t-48.5 -57.5l-190 -215h-212l180 206q-34 6 -65.5 23.5t-56 45.5t-39 64.5t-14.5 81.5q0 56 22.5 102.5t60 79.5t86 51.5t99.5 18.5zM302 398q-38 0 -65 -26t-27 -68 q0 -38 23 -61t59 -23q19 0 36 7t29.5 19t20 29t7.5 37q0 37 -23 61.5t-60 24.5z" />
<glyph unicode=":" horiz-adv-x="270" d="M165 512q24 0 44.5 -9t35 -24t23 -35.5t8.5 -43.5q0 -24 -8.5 -44.5t-23 -35.5t-35 -23.5t-44.5 -8.5q-51 0 -82.5 32t-31.5 80q0 47 31.5 79.5t82.5 32.5zM112 212q24 0 44.5 -9t35 -24t23 -35.5t8.5 -43.5q0 -24 -8.5 -44.5t-23 -35.5t-35 -23.5t-44.5 -8.5 q-51 0 -82.5 32t-31.5 80q0 47 31.5 79.5t82.5 32.5z" />
<glyph unicode=";" horiz-adv-x="270" d="M165 512q24 0 44.5 -9t35 -24t23 -35.5t8.5 -43.5q0 -24 -8.5 -44.5t-23 -35.5t-35 -23.5t-44.5 -8.5q-51 0 -82.5 32t-31.5 80q0 47 31.5 79.5t82.5 32.5zM108 -177h-135l57 322h195z" />
<glyph unicode="&#x3c;" d="M539 411l-232 -93l200 -92l-26 -141l-443 217l8 45l519 217z" />
<glyph unicode="=" d="M536 362h-467l25 144h467zM497 142h-467l25 144h467z" />
<glyph unicode="&#x3e;" d="M551 347l-8 -45l-519 -217l27 154l234 92l-201 95l24 138z" />
<glyph unicode="?" horiz-adv-x="456" d="M281 672q39 0 74 -9.5t61.5 -29t42 -49.5t15.5 -70q0 -29 -8 -52.5t-22 -43t-32.5 -35.5t-38.5 -30q-26 -17 -50 -35t-36 -53h-139q0 21 3.5 41t12.5 38.5t25.5 36.5t42.5 35q32 21 47 34t15 33q0 17 -10 24.5t-24 7.5q-20 0 -36 -14t-34 -42l-128 73q38 75 94 107.5 t125 32.5zM202 212q50 0 81 -32.5t31 -79.5q0 -24 -8.5 -44.5t-23.5 -35.5t-35.5 -23.5t-44.5 -8.5t-45 8.5t-36 23.5t-23.5 35.5t-8.5 44.5q0 47 31.5 79.5t81.5 32.5z" />
<glyph unicode="@" horiz-adv-x="973" d="M532 671q102 0 179.5 -30t130 -80.5t79 -116t26.5 -136.5q0 -60 -19.5 -112.5t-60 -91.5t-102.5 -61.5t-147 -22.5h-80l8 57q-43 -58 -121 -58q-42 0 -74.5 16t-55 43t-34.5 62.5t-12 74.5q0 38 12 80.5t38.5 78.5t67.5 59.5t99 23.5q92 0 131 -62l9 51h138l-53 -301 q25 1 47.5 11t39 30t26.5 49.5t10 69.5q0 51 -17.5 94.5t-53 75t-88.5 49.5t-125 18q-99 0 -168.5 -32t-113 -81t-63.5 -108t-20 -113q0 -64 24.5 -115.5t67.5 -87.5t99.5 -55.5t121.5 -19.5q26 0 50 2.5t44 4.5l10 -115q-29 -11 -62.5 -15t-64.5 -4q-91 0 -168 30 t-133.5 83t-88.5 125.5t-32 158.5q0 84 32.5 168.5t95.5 151.5t156 109t215 42zM491 319q-16 0 -31 -7t-26.5 -19t-18.5 -28.5t-7 -35.5q0 -34 20 -54t51 -20q34 0 58.5 24t24.5 62q0 35 -21 56.5t-50 21.5z" />
<glyph unicode="A" horiz-adv-x="659" d="M616 0h-180l-15 55h-232l-34 -55h-194l419 672h55zM274 193h110l-28 147z" />
<glyph unicode="B" horiz-adv-x="623" d="M358 660q47 0 85.5 -14t65.5 -39t42 -59.5t15 -75.5q0 -43 -16 -76t-44 -56q37 -21 58.5 -56.5t21.5 -84.5q0 -46 -19 -82.5t-51.5 -62.5t-76.5 -40t-93 -14h-322l116 660h218zM234 259l-20 -114h133q32 0 51 14t19 45q0 29 -16 42t-44 13h-123zM279 516l-20 -117h66 q32 0 51.5 16t19.5 45q0 25 -16 40.5t-45 15.5h-56z" />
<glyph unicode="C" horiz-adv-x="724" d="M431 672q106 0 183 -50t114 -140l-140 -83q-25 55 -65.5 85t-101.5 30q-42 0 -78 -15t-62 -41t-40.5 -62.5t-14.5 -79.5q0 -39 12 -70.5t34.5 -53.5t53.5 -34t69 -12q57 0 99.5 26t77.5 74l121 -95q-53 -78 -133.5 -120.5t-177.5 -42.5q-73 0 -134 24t-105 66.5 t-68.5 101.5t-24.5 128q0 77 30 143.5t81.5 115.5t121 77t148.5 28z" />
<glyph unicode="D" horiz-adv-x="691" d="M340 660q72 0 133 -22.5t105.5 -63.5t69.5 -97.5t25 -123.5q0 -61 -22 -123.5t-69.5 -113.5t-121 -83.5t-176.5 -32.5h-260l116 660h200zM284 504l-61 -350l72 1q43 0 80 13.5t64 38t42.5 59.5t15.5 79q0 40 -12.5 69.5t-35 49.5t-54 30t-68.5 10h-43z" />
<glyph unicode="E" horiz-adv-x="577" d="M571 505h-286l-16 -91h204l-26 -144h-204l-20 -115h298l-27 -155h-470l116 660h458z" />
<glyph unicode="F" horiz-adv-x="542" d="M560 505h-276l-22 -126h224l-26 -155h-224l-40 -224h-172l116 660h448z" />
<glyph unicode="G" horiz-adv-x="751" d="M703 153q-24 -36 -57 -66.5t-74.5 -52.5t-89 -34t-99.5 -12q-73 0 -134 24t-105.5 66.5t-69 101.5t-24.5 128q0 77 30 143.5t81.5 115.5t121 77t149.5 28q96 0 167.5 -41.5t115.5 -119.5l-130 -96q-28 46 -65.5 72.5t-96.5 26.5q-43 0 -79 -14.5t-62.5 -41t-41 -63 t-14.5 -80.5q0 -81 47 -127.5t125 -46.5q40 0 76 13t64 39l7 38h-154l26 148h326z" />
<glyph unicode="H" horiz-adv-x="717" d="M609 0h-172l46 264h-241l-46 -264h-172l116 660h172l-42 -241h241l42 241h172z" />
<glyph unicode="I" horiz-adv-x="304" d="M196 0h-172l116 660h172z" />
<glyph unicode="J" horiz-adv-x="400" d="M324 179q-17 -95 -72 -143t-145 -48q-33 0 -69 6.5t-66 17.5l25 142q24 -4 42.5 -6t34.5 -2q38 0 57.5 15t25.5 51l79 448h172z" />
<glyph unicode="K" horiz-adv-x="695" d="M259 362l259 298h212l-287 -330l208 -330h-188l-209 330l-58 -330h-172l116 660h172z" />
<glyph unicode="L" horiz-adv-x="535" d="M223 155h273l-27 -155h-445l116 660h172z" />
<glyph unicode="M" horiz-adv-x="804" d="M418 328l341 344h55l-118 -672h-172l46 261l-149 -144h-55l-119 173l-51 -290h-172l118 672h55z" />
<glyph unicode="N" horiz-adv-x="717" d="M607 -12h-55l-295 359l-61 -347h-172l118 672h55l295 -353l61 341h172z" />
<glyph unicode="O" horiz-adv-x="776" d="M429 672q72 0 132 -24t104 -66.5t68.5 -101.5t24.5 -128q0 -77 -30 -143.5t-81.5 -115.5t-120.5 -77t-147 -28q-72 0 -132 24t-104 66.5t-68.5 101.5t-24.5 128q0 77 30 143.5t81.5 115.5t120.5 77t147 28zM417 514q-41 0 -75.5 -15t-60.5 -41t-40.5 -62.5t-14.5 -79.5 q0 -39 12.5 -70.5t34 -53.5t52 -34t66.5 -12q40 0 75 15t61 41t40.5 62.5t14.5 79.5q0 39 -12.5 70.5t-34 53.5t-52 34t-66.5 12z" />
<glyph unicode="P" horiz-adv-x="613" d="M370 660q57 0 103 -15t78 -43t49.5 -67.5t17.5 -88.5q0 -56 -22 -101t-61 -76t-92.5 -47.5t-116.5 -16.5h-94l-36 -205h-172l116 660h230zM285 510l-27 -155h97q39 0 63 21t24 59q0 35 -19.5 55t-54.5 20h-83z" />
<glyph unicode="Q" horiz-adv-x="775" d="M429 672q72 0 132 -24t104 -66.5t68.5 -101.5t24.5 -128q0 -95 -44 -172.5t-118 -126.5q34 -46 72.5 -73.5t82 -42.5t91.5 -19.5t101 -4.5h36q7 0 12 1l-23 -133q-16 -5 -44.5 -8.5t-61.5 -3.5q-37 0 -91 7.5t-112.5 31.5t-115.5 68t-101 117q-15 -2 -31 -3.5t-32 -1.5 q-72 0 -132 24t-104 66.5t-68.5 101.5t-24.5 128q0 77 30 143.5t81.5 115.5t120.5 77t147 28zM417 514q-41 0 -75.5 -15t-60.5 -41t-40.5 -62.5t-14.5 -79.5q0 -39 12.5 -70.5t34 -53.5t52 -34t66.5 -12q40 0 75 15t61 41t40.5 62.5t14.5 79.5q0 39 -12.5 70.5t-34 53.5 t-52 34t-66.5 12z" />
<glyph unicode="R" horiz-adv-x="652" d="M370 660q57 0 103 -15t78 -43t49.5 -66.5t17.5 -85.5q0 -74 -41 -128.5t-107 -84.5l138 -237h-186l-123 205h-67l-36 -205h-172l116 660h230zM285 510l-27 -155h97q39 0 63 21t24 59q0 35 -19.5 55t-54.5 20h-83z" />
<glyph unicode="S" d="M326 672q81 0 136 -36.5t92 -100.5l-126 -85q-21 30 -47 49.5t-65 19.5q-34 0 -46.5 -13.5t-12.5 -29.5q0 -19 13.5 -32t40.5 -27l73 -35q62 -29 99.5 -71t37.5 -105q0 -38 -15 -76.5t-45.5 -70t-76.5 -51.5t-109 -20q-95 0 -162.5 46t-106.5 120l125 81q29 -42 65.5 -68 t84.5 -26q30 0 50 11.5t20 36.5q0 21 -16.5 35t-48.5 30l-66 33q-66 32 -100 75.5t-34 104.5q0 45 18 82.5t50 65t76 42.5t96 15z" />
<glyph unicode="T" horiz-adv-x="588" d="M625 505h-198l-89 -505h-172l89 505h-198l27 155h568z" />
<glyph unicode="U" horiz-adv-x="708" d="M647 248q-12 -65 -39.5 -113.5t-67 -81t-90 -49t-108.5 -16.5q-61 0 -112 17.5t-87.5 50t-57 77.5t-20.5 100q0 18 2 33.5t5 32.5l64 361h172l-64 -362q-3 -15 -5 -28t-2 -24q0 -42 30.5 -71t81.5 -29t85.5 30.5t43.5 82.5l70 401h172z" />
<glyph unicode="V" horiz-adv-x="659" d="M311 -12h-55l-181 672h180l85 -318l196 318h194z" />
<glyph unicode="W" horiz-adv-x="1015" d="M607 672l92 -325l179 313h195l-390 -672h-55l-101 348l-236 -348h-55l-154 672h175l71 -322l224 334h55z" />
<glyph unicode="X" horiz-adv-x="623" d="M348 479l126 181h208l-256 -342l153 -318h-181l-91 191l-139 -191h-208l271 354l-143 306h181z" />
<glyph unicode="Y" horiz-adv-x="629" d="M399 249l-44 -249h-172l45 255l-156 405h171l93 -231l163 231h198z" />
<glyph unicode="Z" horiz-adv-x="587" d="M629 615l-371 -460h291l-27 -155h-552l8 45l369 460h-245l27 155h508z" />
<glyph unicode="[" horiz-adv-x="367" d="M398 596h-111l-103 -592h111l-24 -134h-253l151 860h253z" />
<glyph unicode="\" horiz-adv-x="704" d="M639 -121h-160l-383 901h160z" />
<glyph unicode="]" horiz-adv-x="367" d="M219 -130h-253l23 134h111l104 592h-111l23 134h253z" />
<glyph unicode="^" horiz-adv-x="550" d="M514 270h-156l-47 146l-98 -146h-166l276 400h55z" />
<glyph unicode="_" horiz-adv-x="500" d="M394 -192h-440l23 134h440z" />
<glyph unicode="`" horiz-adv-x="295" d="M324 574h-120l-84 176l10 30h194v-206z" />
<glyph unicode="a" horiz-adv-x="628" d="M297 503q49 0 83.5 -14.5t56.5 -40.5l7 42h172l-86 -490h-161l7 41q-50 -53 -133 -53q-49 0 -88.5 19t-67.5 50.5t-43 73.5t-15 88q0 45 15.5 95t48 92t83 69.5t121.5 27.5zM310 349q-45 0 -74 -32t-30 -79q-1 -44 24.5 -70.5t66.5 -26.5q45 0 75 30.5t31 77.5 q1 45 -25.5 72.5t-67.5 27.5z" />
<glyph unicode="b" horiz-adv-x="628" d="M267 461q49 41 120 41q49 0 88.5 -19t67.5 -50.5t43 -73.5t15 -88q0 -45 -15.5 -95t-48 -92t-83.5 -69.5t-121 -27.5q-52 0 -85.5 15.5t-53.5 42.5l-8 -45h-172l132 750h172zM333 349q-45 0 -75 -30.5t-31 -77.5q-1 -45 25.5 -72.5t67.5 -27.5q45 0 74 32t30 79 q1 44 -24.5 70.5t-66.5 26.5z" />
<glyph unicode="c" horiz-adv-x="559" d="M318 500q83 0 140.5 -39t81.5 -102l-127 -84q-16 27 -39 49t-63 22q-47 0 -76 -32t-29 -79q0 -43 25.5 -68t67.5 -25q36 0 61 17.5t44 43.5l110 -94q-35 -55 -92.5 -88t-133.5 -33q-55 0 -102.5 18t-82 50.5t-54 77t-19.5 97.5q0 57 23 106.5t62.5 85.5t91.5 56.5 t111 20.5z" />
<glyph unicode="d" horiz-adv-x="628" d="M530 0h-157l8 47q-51 -59 -138 -59q-49 0 -88.5 19t-67.5 50.5t-43 73.5t-15 88q0 45 15.5 95t48 92t83 69.5t121.5 27.5q50 0 84.5 -14.5t55.5 -40.5l53 302h172zM310 349q-45 0 -74 -32t-30 -79q-1 -44 24.5 -70.5t66.5 -26.5q45 0 75 30.5t31 77.5q1 45 -25.5 72.5 t-67.5 27.5z" />
<glyph unicode="e" horiz-adv-x="562" d="M312 502q53 0 95 -17.5t71 -47t44.5 -68.5t15.5 -82q0 -28 -6 -54.5t-14 -46.5h-316q13 -29 40 -42.5t68 -13.5q36 0 69 10t65 28l55 -114q-95 -66 -204 -66q-60 0 -108.5 18t-83.5 50.5t-54 76.5t-19 96q0 57 22 107t60.5 86.5t89.5 58t110 21.5zM298 369 q-33 0 -58.5 -19t-37.5 -54h174q-1 35 -24 54t-54 19z" />
<glyph unicode="f" horiz-adv-x="370" d="M378 348h-101l-62 -357q-16 -93 -71.5 -138t-143.5 -45q-57 0 -107 20l23 139q19 -2 32 -3.5t25 -1.5q37 0 54 15t22 46l56 325h-70l25 142h70l16 89q16 93 71.5 138t143.5 45q57 0 107 -20l-23 -139q-19 2 -32 3.5t-25 1.5q-37 0 -54 -15t-22 -46l-10 -57h101z" />
<glyph unicode="g" horiz-adv-x="630" d="M297 503q51 0 85 -15.5t55 -41.5l8 44h172l-79 -454q-11 -60 -37.5 -103.5t-64.5 -71t-84.5 -40.5t-96.5 -13q-66 0 -134.5 24.5t-128.5 87.5l100 115q42 -36 80 -54.5t83 -18.5q42 0 73.5 18t38.5 60l3 17q-50 -35 -119 -35q-49 0 -89.5 16t-70 43.5t-45.5 66t-16 83.5 q0 42 15.5 90t48 88.5t83 67t120.5 26.5zM312 359q-23 0 -42 -9t-33 -24t-22 -34.5t-8 -40.5q0 -38 24.5 -64.5t66.5 -26.5q22 0 41.5 8t33.5 22.5t22.5 33t8.5 39.5q1 41 -24.5 68.5t-67.5 27.5z" />
<glyph unicode="h" horiz-adv-x="597" d="M267 464q22 17 51 27.5t66 10.5q39 0 70.5 -12t54.5 -34.5t35.5 -53.5t12.5 -69q0 -25 -6 -58l-48 -275h-172l46 267q3 12 3 25q0 29 -19 46t-49 17q-28 0 -49 -16.5t-27 -51.5l-50 -287h-172l132 750h172z" />
<glyph unicode="i" horiz-adv-x="284" d="M186 0h-172l86 490h172zM220 779q22 0 41 -8t33.5 -21.5t23 -32t8.5 -40.5q0 -21 -8.5 -39.5t-23 -32t-33.5 -21.5t-41 -8t-41 8t-33.5 21.5t-22.5 32t-8 39.5q0 44 30.5 73t74.5 29z" />
<glyph unicode="j" horiz-adv-x="285" d="M185 -8q-16 -92 -71 -138t-143 -46q-32 0 -56.5 5.5t-44.5 14.5l25 142q13 -2 24.5 -3.5t23.5 -1.5q36 0 53 14.5t22 44.5l82 466h172zM219 779q22 0 41 -8t33.5 -21.5t23 -32t8.5 -40.5q0 -21 -8.5 -39.5t-23 -32t-33.5 -21.5t-41 -8t-41 8t-33.5 21.5t-22.5 32t-8 39.5 q0 44 30.5 73t74.5 29z" />
<glyph unicode="k" horiz-adv-x="591" d="M238 296l185 194h200l-209 -224l135 -266h-185l-132 264l-46 -264h-172l132 750h172z" />
<glyph unicode="l" horiz-adv-x="284" d="M186 0h-172l132 750h172z" />
<glyph unicode="m" horiz-adv-x="904" d="M691 502q82 0 127.5 -46.5t45.5 -122.5q0 -25 -6 -58l-48 -275h-172l46 264q3 16 3 28q0 29 -17 46t-47 17q-28 0 -48.5 -16.5t-26.5 -51.5l-50 -287h-172l46 265q3 15 3 27q0 29 -17 46t-47 17q-28 0 -48.5 -16.5t-26.5 -51.5l-50 -287h-172l86 490h157l-7 -41 q26 23 59.5 38t77.5 15t79.5 -16.5t58.5 -45.5q30 27 72.5 44.5t93.5 17.5z" />
<glyph unicode="n" horiz-adv-x="597" d="M386 502q37 0 68.5 -12t54.5 -34.5t35.5 -54t12.5 -69.5q0 -24 -6 -57l-48 -275h-172l45 258q4 20 4 33q0 31 -19.5 47.5t-48.5 16.5q-28 0 -49 -16.5t-27 -51.5l-50 -287h-172l86 490h157l-8 -41q26 23 60 38t77 15z" />
<glyph unicode="o" horiz-adv-x="607" d="M317 502q55 0 103 -19t83 -52t55 -78.5t20 -97.5q0 -57 -23.5 -106t-63 -85t-91.5 -56t-110 -20q-56 0 -103.5 19t-82 52t-54 78t-19.5 97q0 57 23 106t62.5 85t91.5 56.5t109 20.5zM310 348q-44 0 -73 -31.5t-30 -78.5q-1 -44 24.5 -70t65.5 -26q44 0 74 30t31 77 q1 45 -25.5 72t-66.5 27z" />
<glyph unicode="p" horiz-adv-x="628" d="M387 502q49 0 88.5 -19t67.5 -50.5t43 -73.5t15 -88q0 -45 -15.5 -95t-48 -92t-83.5 -69.5t-121 -27.5q-50 0 -84.5 14.5t-56.5 40.5l-38 -222h-172l118 670h157l-9 -47q51 59 139 59zM333 348q-45 0 -75 -30t-31 -77q-1 -45 25.5 -72.5t67.5 -27.5q45 0 74.5 32t30.5 79 q1 44 -25 70t-67 26z" />
<glyph unicode="q" horiz-adv-x="628" d="M297 503q51 0 85 -15.5t54 -43.5l8 46h172l-118 -671h-172l37 210q-49 -41 -120 -41q-49 0 -88.5 19t-67.5 50.5t-43 73.5t-15 88q0 45 15.5 95t48 92t83 69.5t121.5 27.5zM310 349q-45 0 -74 -32t-30 -79q-1 -44 24.5 -70.5t66.5 -26.5q45 0 75 30.5t31 77.5 q1 45 -25.5 72.5t-67.5 27.5z" />
<glyph unicode="r" horiz-adv-x="405" d="M368 496q19 0 34 -3.5t29 -9.5l-27 -151q-18 2 -32 3.5t-27 1.5q-51 0 -80 -25t-39 -84l-40 -228h-172l86 490h157l-9 -48q49 54 120 54z" />
<glyph unicode="s" horiz-adv-x="456" d="M242 502q63 0 112.5 -22t84.5 -64l-96 -96q-23 25 -49 37t-48 12q-29 0 -29 -20q0 -10 7 -15.5t20 -10.5l45 -17q61 -24 98 -58.5t37 -88.5q0 -27 -10.5 -57t-34.5 -55.5t-63 -42t-96 -16.5q-73 0 -132.5 29.5t-92.5 83.5l101 93q28 -32 57.5 -52.5t67.5 -20.5 q17 0 29.5 5t12.5 17q0 9 -7 15t-20 11l-47 18q-60 24 -97 59.5t-37 96.5q0 37 14 66.5t39 50t59 31.5t75 11z" />
<glyph unicode="t" horiz-adv-x="439" d="M412 348h-136l-25 -137q-1 -6 -1.5 -11t-0.5 -10q0 -33 25.5 -44t73.5 -11h40l-25 -142q-15 -2 -29.5 -3.5t-34.5 -1.5q-36 0 -75.5 6.5t-72.5 24.5t-54.5 51t-21.5 86q0 14 1.5 26.5t3.5 26.5l24 139h-74l25 142h75l23 130h172l-24 -130h136z" />
<glyph unicode="u" horiz-adv-x="593" d="M535 205q-9 -54 -32 -95t-56.5 -68t-76 -40.5t-90.5 -13.5q-51 0 -93.5 14.5t-73 41.5t-47.5 65t-17 85q0 14 1.5 26.5t3.5 25.5l42 244h172l-46 -267q-1 -5 -1.5 -9.5t-0.5 -9.5q0 -27 19.5 -44.5t48.5 -17.5q27 0 48.5 16t27.5 48l49 284h172z" />
<glyph unicode="v" horiz-adv-x="571" d="M262 -12h-55l-168 502h176l63 -215l137 215h191z" />
<glyph unicode="w" horiz-adv-x="861" d="M497 502l75 -230l136 218h188l-332 -502h-55l-84 233l-171 -233h-55l-160 502h176l65 -235l162 247h55z" />
<glyph unicode="x" horiz-adv-x="553" d="M292 374l92 116h201l-212 -245l138 -245h-181l-69 129l-102 -129h-201l222 258l-128 232h181z" />
<glyph unicode="y" horiz-adv-x="608" d="M516 37q-10 -56 -34 -98.5t-59.5 -71.5t-80 -44t-94.5 -15q-33 0 -67 6.5t-67 20.5t-63 35t-55 50l100 115q38 -32 72.5 -52.5t79.5 -20.5q38 0 63.5 17.5t33.5 62.5l3 19q-24 -17 -53.5 -26t-62.5 -9q-39 0 -71 13t-54.5 35.5t-35 53t-12.5 65.5q0 12 1.5 26.5t3.5 26.5 l43 244h172l-42 -238q-1 -5 -1.5 -9.5t-0.5 -9.5q0 -27 19.5 -44.5t48.5 -17.5q27 0 49 16t27 48l45 255h172z" />
<glyph unicode="z" horiz-adv-x="478" d="M501 445l-257 -301h207l-25 -144h-458l8 45l260 301h-187l26 144h434z" />
<glyph unicode="{" horiz-adv-x="421" d="M453 596h-62q-38 0 -52 -22t-14 -60v-84q0 -31 -3 -54.5t-13 -40t-29.5 -26.5t-52.5 -14q32 -5 49 -20t17 -44q0 -21 -8 -47t-17.5 -52t-17.5 -49.5t-8 -39.5q0 -19 12 -29t33 -10h62l-23 -134h-96q-29 0 -54 7.5t-44 22.5t-30 38t-11 54q0 28 8.5 56t18 53.5t18 48 t8.5 38.5q0 34 -44 34h-65l26 144h71q36 0 46 17.5t10 49.5v93q0 43 10 80t33 64.5t60.5 43.5t92.5 16h92z" />
<glyph unicode="|" horiz-adv-x="332" d="M253 -121h-142v901h142v-901z" />
<glyph unicode="}" horiz-adv-x="423" d="M212 730q28 0 53.5 -7.5t44.5 -22.5t30 -38t11 -54q0 -28 -8.5 -58t-18 -58.5t-18 -53.5t-8.5 -41q0 -17 11 -24t33 -7h65l-26 -144h-71q-19 0 -30 -5.5t-17 -15.5t-7.5 -23t-1.5 -29v-70q0 -45 -9.5 -83t-32.5 -66t-60.5 -44t-93.5 -16h-92l23 134h62q39 0 52.5 22.5 t13.5 64.5v68q0 31 3 54.5t13.5 39.5t30.5 26t55 14q-35 7 -52.5 23.5t-17.5 46.5q0 21 8 48t17.5 54t17.5 51.5t8 40.5q0 19 -12 29t-33 10h-62l23 134h96z" />
<glyph unicode="~" d="M176 455q29 0 53 -9.5t46 -23.5l74 -49q16 -11 29 -17.5t24 -6.5q17 0 23.5 13t9.5 33h128q-8 -103 -47.5 -152t-102.5 -49q-29 0 -53 9.5t-46 23.5l-74 49q-16 11 -29 17.5t-24 6.5q-17 0 -23.5 -13t-9.5 -33h-128q8 103 47.5 152t102.5 49z" />
<glyph unicode="&#xa2;" horiz-adv-x="559" d="M426 574q51 -17 87 -50.5t54 -80.5l-125 -82q-8 13 -18 26t-23.5 23t-30.5 16.5t-38 6.5q-51 0 -81 -33.5t-30 -83.5q0 -47 26.5 -73t71.5 -26q38 0 65.5 17.5t47.5 44.5l108 -92q-32 -51 -84 -84t-119 -39l-28 -163h-144l31 184q-69 28 -110 87.5t-41 138.5 q0 52 18.5 97.5t50.5 81t76 59.5t94 33l29 166h144z" />
<glyph unicode="&#xa3;" horiz-adv-x="595" d="M441 216h-112q-9 -43 -33 -72h236l-25 -144h-517l7 35q77 54 113.5 97t46.5 84h-120l25 144h75q-8 21 -13 43.5t-5 48.5q0 38 14.5 77t44.5 70.5t76 51.5t109 20q49 0 90 -13t72 -39.5t50.5 -66t24.5 -93.5l-149 -39q-12 92 -83 92q-23 0 -38.5 -8.5t-24.5 -21.5 t-13 -28.5t-4 -29.5q0 -18 4.5 -33.5t11.5 -30.5h162z" />
<glyph unicode="&#xa5;" horiz-adv-x="629" d="M543 72h-172l-12 -72h-172l12 72h-170l23 134h171l7 44h-170l23 134h133l-140 276h181l92 -184l156 184h196l-238 -276h134l-23 -134h-172l-7 -44h171z" />
<glyph unicode="&#xa8;" horiz-adv-x="522" d="M470 771q41 0 69.5 -26.5t28.5 -67.5q0 -18 -7.5 -35t-21 -30t-31.5 -20.5t-38 -7.5q-18 0 -35.5 7.5t-31 20.5t-22 30t-8.5 35q0 20 8.5 37.5t22 30t31 19.5t35.5 7zM205 771q41 0 69.5 -26.5t28.5 -67.5q0 -18 -7.5 -35t-21 -30t-31.5 -20.5t-38 -7.5q-18 0 -35.5 7.5 t-31 20.5t-22 30t-8.5 35q0 20 8.5 37.5t22 30t31 19.5t35.5 7z" />
<glyph unicode="&#xa9;" horiz-adv-x="783" d="M425 672q72 0 134 -25t107.5 -69t71.5 -103.5t26 -128.5q0 -74 -30 -139.5t-81 -114t-119 -76.5t-144 -28q-72 0 -134.5 25.5t-108 69.5t-71.5 103.5t-26 128.5q0 74 30 139t81.5 113.5t119.5 76.5t144 28zM418 511q52 0 90 -23.5t63 -63.5l-91 -68q-11 18 -25.5 30.5 t-40.5 12.5q-30 0 -49 -21t-19 -55q0 -28 16.5 -45.5t45.5 -17.5q21 0 37 10.5t29 25.5l77 -75q-29 -33 -66.5 -52.5t-84.5 -19.5q-39 0 -71.5 13t-56 35.5t-37 54t-13.5 67.5q0 41 15.5 76.5t42.5 61t62.5 40t75.5 14.5zM420 576q-55 0 -103 -20t-84 -55t-57 -82.5 t-21 -102.5q0 -50 17.5 -92.5t49 -73.5t76.5 -48.5t99 -17.5q66 0 115 24.5t82 62.5t49 85t16 91q0 48 -18 90t-49.5 72.5t-75.5 48.5t-96 18z" />
<glyph unicode="&#xab;" horiz-adv-x="658" d="M664 419l-159 -152l106 -148l-119 -90l-172 222l8 45l239 223zM369 419l-159 -152l106 -148l-119 -90l-172 222l8 45l239 223z" />
<glyph unicode="&#xad;" horiz-adv-x="340" d="M303 253h-260l25 144h260z" />
<glyph unicode="&#xae;" horiz-adv-x="578" d="M337 696q52 0 97.5 -19t79.5 -52.5t53 -79t19 -97.5q0 -57 -22 -106.5t-60 -86.5t-88 -58.5t-105 -21.5q-53 0 -98.5 19.5t-79.5 53t-53 79t-19 97.5q0 56 22.5 105.5t60 86.5t87.5 58.5t106 21.5zM333 626q-40 0 -76 -15.5t-63 -42.5t-42.5 -63.5t-15.5 -79.5 q0 -39 13 -72t37 -57t57 -37.5t73 -13.5q48 0 84.5 19t61 48.5t37 65.5t12.5 71q0 37 -13.5 69.5t-37.5 56.5t-56.5 37.5t-70.5 13.5zM348 567q40 0 66 -24t26 -62q0 -27 -14 -47t-36 -32l49 -86h-85l-41 69h-24l-12 -69h-77l44 251h104zM309 500l-8 -48h27q14 0 23 6.5 t9 19.5q0 10 -6.5 16t-17.5 6h-27z" />
<glyph unicode="&#xaf;" horiz-adv-x="380" d="M415 610h-320l24 134h320z" />
<glyph unicode="&#xb4;" horiz-adv-x="341" d="M401 750l-178 -176h-134l100 206h217z" />
<glyph unicode="&#xb8;" horiz-adv-x="310" d="M176 48q24 -17 37.5 -43.5t13.5 -53.5q0 -22 -9.5 -47t-30.5 -46.5t-54 -35.5t-80 -14q-29 0 -52.5 5t-43.5 12l19 110q14 -2 30 -4t30 -2q24 0 39.5 9.5t22.5 40.5q3 14 4.5 26.5t3.5 20.5z" />
<glyph unicode="&#xbb;" horiz-adv-x="658" d="M645 297l-8 -45l-239 -223l-97 100l158 152l-105 148l119 90zM350 297l-8 -45l-239 -223l-97 100l158 152l-105 148l119 90z" />
<glyph unicode="&#xc6;" horiz-adv-x="873" d="M790 0h-382v55h-209l-37 -55h-204l450 660h486l-27 -155h-291v-91h193l-25 -144h-168v-115h241zM409 193l4 199l-123 -199h119z" />
<glyph unicode="&#xe6;" horiz-adv-x="857" d="M295 502q48 0 86.5 -13.5t64.5 -44.5q34 27 75.5 42.5t89.5 15.5q51 0 92 -17.5t70 -47t44.5 -68.5t15.5 -82q0 -28 -6 -55t-14 -47h-314q12 -29 39 -42t67 -13q36 0 69 10t65 28l55 -114q-95 -66 -201 -66q-65 0 -115 23t-82 64q-44 -45 -92.5 -66t-111.5 -21 q-36 0 -68 7t-57 23.5t-39.5 44t-14.5 67.5q0 34 12 63t38.5 50t69 33t103.5 12h101q1 3 1 9q0 25 -16.5 42t-53.5 17q-35 0 -65.5 -14.5t-64.5 -35.5l-61 115q52 41 105 61t113 20zM593 369q-35 0 -61 -21.5t-37 -59.5h176v6q0 37 -23 56t-55 19zM238 109q32 0 53.5 18.5 t27.5 50.5l1 7h-78q-21 0 -37 -7t-16 -30q0 -39 49 -39z" />
<glyph unicode="&#x131;" horiz-adv-x="284" d="M186 0h-172l86 490h172z" />
<glyph unicode="&#x237;" horiz-adv-x="285" d="M185 -8q-16 -92 -71 -138t-143 -46q-32 0 -56.5 5.5t-44.5 14.5l25 142q13 -2 24.5 -3.5t23.5 -1.5q36 0 53 14.5t22 44.5l82 466h172z" />
<glyph unicode="&#x2c6;" horiz-adv-x="442" d="M471 574h-116l-53 74l-83 -74h-130l170 206h115z" />
<glyph unicode="&#x2d8;" horiz-adv-x="434" d="M494 755q-5 -39 -20.5 -73t-41 -59t-60.5 -39.5t-78 -14.5q-39 0 -71.5 12t-55 34t-35 52.5t-12.5 66.5v10t1 11h133v-10q0 -23 13 -37t36 -14t38 14.5t20 46.5h133z" />
<glyph unicode="&#x2d9;" horiz-adv-x="274" d="M214 779q22 0 41 -8t33.5 -21.5t23 -32t8.5 -40.5q0 -21 -8.5 -39.5t-23 -32t-33.5 -21.5t-41 -8t-41 8t-33.5 21.5t-22.5 32t-8 39.5q0 44 30.5 73t74.5 29z" />
<glyph unicode="&#x2da;" horiz-adv-x="337" d="M251 803q59 0 95 -35t36 -89q0 -29 -11 -53.5t-30 -43.5t-45.5 -29.5t-57.5 -10.5q-59 0 -95 35t-36 89q0 28 11 53t30 44t45.5 29.5t57.5 10.5zM247 708q-16 0 -26.5 -10.5t-10.5 -26.5t9 -25t23 -9q15 0 26.5 10.5t11.5 27.5q0 14 -9 23.5t-24 9.5z" />
<glyph unicode="&#x2dc;" horiz-adv-x="474" d="M229 772q38 0 75 -20l29 -16q11 -5 20 -9t18 -4q14 0 22.5 10.5t11.5 28.5h128q-7 -91 -40.5 -142.5t-96.5 -51.5q-38 0 -75 20l-29 16q-11 5 -20 9t-18 4q-14 0 -22.5 -10.5t-11.5 -28.5h-128q7 91 40.5 142.5t96.5 51.5z" />
<glyph unicode="&#x2dd;" horiz-adv-x="530" d="M590 750l-158 -176h-124l100 206h187zM371 750l-158 -176h-124l100 206h187z" />
<glyph unicode="&#x3a0;" horiz-adv-x="697" d="M589 0h-172l89 505h-221l-89 -505h-172l116 660h565z" />
<glyph unicode="&#x400;" horiz-adv-x="577" d="M571 505h-286l-16 -91h204l-26 -144h-204l-20 -115h298l-27 -155h-470l116 660h458zM432 724h-122l-110 156l6 30h194z" />
<glyph unicode="&#x401;" horiz-adv-x="577" d="M571 505h-286l-16 -91h204l-26 -144h-204l-20 -115h298l-27 -155h-470l116 660h458zM539 910q41 0 69.5 -26.5t28.5 -67.5q0 -18 -7.5 -35t-21 -30t-31.5 -20.5t-38 -7.5q-18 0 -35.5 7.5t-31 20.5t-22 30t-8.5 35q0 20 8.5 37.5t22 30t31 19.5t35.5 7zM254 911 q41 0 69.5 -26.5t28.5 -67.5q0 -18 -7.5 -35t-21 -30t-31.5 -20.5t-38 -7.5q-18 0 -35.5 7.5t-31 20.5t-22 30t-8.5 35q0 20 8.5 37.5t22 30t31 19.5t35.5 7z" />
<glyph unicode="&#x402;" horiz-adv-x="771" d="M625 505h-198l-15 -82h86q52 0 95 -15t74.5 -42.5t49 -67t17.5 -88.5q0 -58 -23.5 -99t-61.5 -68t-85.5 -40t-96.5 -15l-21 152q21 2 41.5 6.5t36.5 12.5t25.5 21.5t9.5 33.5q0 26 -17 42.5t-55 16.5h-101l-48 -273h-172l89 505h-198l27 155h568z" />
<glyph unicode="&#x403;" horiz-adv-x="535" d="M558 505h-273l-89 -505h-172l116 660h445zM606 880l-169 -156h-129l86 186h217z" />
<glyph unicode="&#x404;" horiz-adv-x="724" d="M469 270h-238q13 -58 56.5 -91t107.5 -33q57 0 99.5 26t77.5 74l121 -95q-53 -78 -133.5 -120.5t-177.5 -42.5q-73 0 -134 24t-105 66.5t-68.5 101.5t-24.5 128q0 77 30 143.5t81.5 115.5t121 77t148.5 28q106 0 183 -50t114 -140l-140 -83q-25 55 -65.5 85t-101.5 30 q-58 0 -103 -27t-69 -73h246z" />
<glyph unicode="&#x405;" d="M326 672q81 0 136 -36.5t92 -100.5l-126 -85q-21 30 -47 49.5t-65 19.5q-34 0 -46.5 -13.5t-12.5 -29.5q0 -19 13.5 -32t40.5 -27l73 -35q62 -29 99.5 -71t37.5 -105q0 -38 -15 -76.5t-45.5 -70t-76.5 -51.5t-109 -20q-95 0 -162.5 46t-106.5 120l125 81q29 -42 65.5 -68 t84.5 -26q30 0 50 11.5t20 36.5q0 21 -16.5 35t-48.5 30l-66 33q-66 32 -100 75.5t-34 104.5q0 45 18 82.5t50 65t76 42.5t96 15z" />
<glyph unicode="&#x406;" horiz-adv-x="304" d="M196 0h-172l116 660h172z" />
<glyph unicode="&#x407;" horiz-adv-x="304" d="M196 0h-172l116 660h172zM403 910q41 0 69.5 -26.5t28.5 -67.5q0 -18 -7.5 -35t-21 -30t-31.5 -20.5t-38 -7.5q-18 0 -35.5 7.5t-31 20.5t-22 30t-8.5 35q0 20 8.5 37.5t22 30t31 19.5t35.5 7zM118 911q41 0 69.5 -26.5t28.5 -67.5q0 -18 -7.5 -35t-21 -30t-31.5 -20.5 t-38 -7.5q-18 0 -35.5 7.5t-31 20.5t-22 30t-8.5 35q0 20 8.5 37.5t22 30t31 19.5t35.5 7z" />
<glyph unicode="&#x408;" horiz-adv-x="400" d="M324 179q-17 -95 -72 -143t-145 -48q-33 0 -69 6.5t-66 17.5l25 142q24 -4 42.5 -6t34.5 -2q38 0 57.5 15t25.5 51l79 448h172z" />
<glyph unicode="&#x409;" horiz-adv-x="991" d="M643 455h68q57 0 103 -15t78 -43t49.5 -67.5t17.5 -88.5q0 -56 -22 -101t-61 -76t-92.5 -47.5t-116.5 -16.5h-276l89 505h-127q-28 -160 -69 -259.5t-91.5 -155.5t-110 -76t-125.5 -20l28 161q36 0 66 18.5t55.5 61.5t47 113t39.5 173l24 139h462zM617 305l-28 -155h107 q39 0 63 21t24 59q0 35 -19.5 55t-54.5 20h-92z" />
<glyph unicode="&#x40a;" horiz-adv-x="1028" d="M679 455h69q57 0 103 -15t78 -43t49.5 -67.5t17.5 -88.5q0 -56 -22 -101t-61 -76t-92.5 -47.5t-116.5 -16.5h-277l46 264h-231l-46 -264h-172l116 660h172l-42 -241h231l42 241h172zM653 305l-27 -155h107q39 0 63 21t24 59q0 35 -19.5 55t-54.5 20h-93z" />
<glyph unicode="&#x40b;" horiz-adv-x="802" d="M484 422q55 0 101 -16t79 -46t51 -73t18 -97q0 -31 -6 -62l-23 -128h-172l26 145q2 12 3 23t1 19q0 24 -8 40t-21.5 25.5t-31.5 13.5t-38 4q-17 0 -37 -2t-42 -7l-46 -261h-172l89 505h-198l27 155h568l-27 -155h-198l-16 -90q18 3 36.5 5t36.5 2z" />
<glyph unicode="&#x40c;" horiz-adv-x="695" d="M645 880l-169 -156h-129l86 186h217zM259 362l259 298h212l-287 -330l208 -330h-188l-209 330l-58 -330h-172l116 660h172z" />
<glyph unicode="&#x40d;" horiz-adv-x="727" d="M619 0h-172l58 330l-428 -342h-55l118 672h172l-58 -331l428 343h55zM494 724h-122l-110 156l6 30h194z" />
<glyph unicode="&#x40e;" horiz-adv-x="643" d="M408 149q-50 -82 -111.5 -121t-148.5 -39q-30 0 -58.5 4t-54.5 12l25 148q20 -3 35 -4t26 -1q29 0 56.5 7t49.5 28l-146 477h181l85 -299l176 299h193zM653 910q-5 -39 -20.5 -72.5t-41 -58.5t-60.5 -39.5t-78 -14.5q-39 0 -71.5 12t-55 34t-35 52t-12.5 66v10t1 11h133 v-10q0 -23 13 -36.5t36 -13.5t38 14.5t20 45.5h133z" />
<glyph unicode="&#x40f;" horiz-adv-x="697" d="M589 0h-197l-24 -141h-172l24 141h-196l116 660h172l-89 -505h221l89 505h172z" />
<glyph unicode="&#x410;" horiz-adv-x="659" d="M616 0h-180l-15 55h-232l-34 -55h-194l419 672h55zM274 193h110l-28 147z" />
<glyph unicode="&#x411;" horiz-adv-x="623" d="M561 505h-276l-19 -106h102q102 0 161 -48.5t59 -136.5q0 -50 -19.5 -89.5t-54.5 -67.5t-82.5 -42.5t-102.5 -14.5h-305l116 660h448zM242 261l-21 -117h132q30 0 48 15.5t18 44.5q0 26 -14.5 41.5t-41.5 15.5h-121z" />
<glyph unicode="&#x412;" horiz-adv-x="623" d="M358 660q47 0 85.5 -14t65.5 -39t42 -59.5t15 -75.5q0 -43 -16 -76t-44 -56q37 -21 58.5 -56.5t21.5 -84.5q0 -46 -19 -82.5t-51.5 -62.5t-76.5 -40t-93 -14h-322l116 660h218zM234 259l-20 -114h133q32 0 51 14t19 45q0 29 -16 42t-44 13h-123zM279 516l-20 -117h66 q32 0 51.5 16t19.5 45q0 25 -16 40.5t-45 15.5h-56z" />
<glyph unicode="&#x413;" horiz-adv-x="535" d="M558 505h-273l-89 -505h-172l116 660h445z" />
<glyph unicode="&#x414;" horiz-adv-x="751" d="M664 -141h-172l25 141h-367l-25 -141h-172l52 296h50q37 29 67 63.5t53 79.5t41 102t31 131l23 129h442l-89 -505h93zM405 505q-14 -71 -30 -125.5t-36.5 -96.5t-44.5 -73t-54 -55h211l62 350h-108z" />
<glyph unicode="&#x415;" horiz-adv-x="577" d="M571 505h-286l-16 -91h204l-26 -144h-204l-20 -115h298l-27 -155h-470l116 660h458z" />
<glyph unicode="&#x416;" horiz-adv-x="1046" d="M813 332l189 -332h-194l-183 329l-58 -329h-172l57 326l-272 -326h-220l312 362l-159 298h191l155 -298l52 298h172l-52 -297l236 297h214z" />
<glyph unicode="&#x417;" horiz-adv-x="592" d="M349 672q49 0 89.5 -14.5t69 -39.5t44.5 -59.5t16 -73.5q0 -42 -19 -82.5t-60 -69.5q29 -22 45.5 -53.5t16.5 -70.5q0 -38 -16 -77.5t-48.5 -71.5t-80.5 -52t-112 -20q-38 0 -79 9t-78.5 29.5t-69 54.5t-52.5 85l128 76q33 -57 70.5 -76.5t79.5 -19.5q40 0 64 14.5 t24 47.5q0 22 -14.5 37.5t-52.5 15.5h-113l25 138h95q37 0 57.5 17t20.5 43q0 28 -22 42t-54 14q-71 0 -136 -72l-106 96q22 31 52.5 55.5t65.5 42t73.5 26.5t76.5 9z" />
<glyph unicode="&#x418;" horiz-adv-x="727" d="M619 0h-172l58 330l-428 -342h-55l118 672h172l-58 -331l428 343h55z" />
<glyph unicode="&#x419;" horiz-adv-x="727" d="M619 0h-172l58 330l-428 -342h-55l118 672h172l-58 -331l428 343h55zM656 910q-5 -39 -20.5 -72.5t-41 -58.5t-60.5 -39.5t-78 -14.5q-39 0 -71.5 12t-55 34t-35 52t-12.5 66v10t1 11h133v-10q0 -23 13 -36.5t36 -13.5t38 14.5t20 45.5h133z" />
<glyph unicode="&#x41a;" horiz-adv-x="695" d="M259 362l259 298h212l-287 -330l208 -330h-188l-209 330l-58 -330h-172l116 660h172z" />
<glyph unicode="&#x41b;" horiz-adv-x="671" d="M563 0h-172l89 505h-127q-28 -160 -69 -259.5t-91.5 -155.5t-110 -76t-125.5 -20l28 161q36 0 66 18.5t55.5 61.5t47 113t39.5 173l24 139h462z" />
<glyph unicode="&#x41c;" horiz-adv-x="804" d="M418 328l341 344h55l-118 -672h-172l46 261l-149 -144h-55l-119 173l-51 -290h-172l118 672h55z" />
<glyph unicode="&#x41d;" horiz-adv-x="717" d="M609 0h-172l46 264h-241l-46 -264h-172l116 660h172l-42 -241h241l42 241h172z" />
<glyph unicode="&#x41e;" horiz-adv-x="776" d="M429 672q72 0 132 -24t104 -66.5t68.5 -101.5t24.5 -128q0 -77 -30 -143.5t-81.5 -115.5t-120.5 -77t-147 -28q-72 0 -132 24t-104 66.5t-68.5 101.5t-24.5 128q0 77 30 143.5t81.5 115.5t120.5 77t147 28zM417 514q-41 0 -75.5 -15t-60.5 -41t-40.5 -62.5t-14.5 -79.5 q0 -39 12.5 -70.5t34 -53.5t52 -34t66.5 -12q40 0 75 15t61 41t40.5 62.5t14.5 79.5q0 39 -12.5 70.5t-34 53.5t-52 34t-66.5 12z" />
<glyph unicode="&#x41f;" horiz-adv-x="697" d="M589 0h-172l89 505h-221l-89 -505h-172l116 660h565z" />
<glyph unicode="&#x420;" horiz-adv-x="613" d="M370 660q57 0 103 -15t78 -43t49.5 -67.5t17.5 -88.5q0 -56 -22 -101t-61 -76t-92.5 -47.5t-116.5 -16.5h-94l-36 -205h-172l116 660h230zM285 510l-27 -155h97q39 0 63 21t24 59q0 35 -19.5 55t-54.5 20h-83z" />
<glyph unicode="&#x421;" horiz-adv-x="724" d="M431 672q106 0 183 -50t114 -140l-140 -83q-25 55 -65.5 85t-101.5 30q-42 0 -78 -15t-62 -41t-40.5 -62.5t-14.5 -79.5q0 -39 12 -70.5t34.5 -53.5t53.5 -34t69 -12q57 0 99.5 26t77.5 74l121 -95q-53 -78 -133.5 -120.5t-177.5 -42.5q-73 0 -134 24t-105 66.5 t-68.5 101.5t-24.5 128q0 77 30 143.5t81.5 115.5t121 77t148.5 28z" />
<glyph unicode="&#x422;" horiz-adv-x="588" d="M625 505h-198l-89 -505h-172l89 505h-198l27 155h568z" />
<glyph unicode="&#x423;" horiz-adv-x="643" d="M408 149q-50 -82 -111.5 -121t-148.5 -39q-30 0 -58.5 4t-54.5 12l25 148q20 -3 35 -4t26 -1q29 0 56.5 7t49.5 28l-146 477h181l85 -299l176 299h193z" />
<glyph unicode="&#x424;" horiz-adv-x="868" d="M588 619q60 -3 108.5 -22.5t83.5 -53t54 -79.5t19 -101q0 -52 -18.5 -108.5t-61 -103t-111 -76t-168.5 -26.5h-7l-14 -81h-172l14 81q-60 3 -109 22.5t-84 53t-54 79.5t-19 102q0 52 18.5 108.5t61 103t111 76t168.5 26.5h8l13 74h172zM214 317q0 -60 32.5 -90t94.5 -32 l49 279h-5q-78 0 -124.5 -42.5t-46.5 -114.5zM688 352q0 59 -32.5 89.5t-93.5 32.5l-49 -279h4q78 0 124.5 42.5t46.5 114.5z" />
<glyph unicode="&#x425;" horiz-adv-x="623" d="M348 479l126 181h208l-256 -342l153 -318h-181l-91 191l-139 -191h-208l271 354l-143 306h181z" />
<glyph unicode="&#x426;" horiz-adv-x="744" d="M616 155h93l-52 -296h-172l25 141h-486l116 660h172l-89 -505h221l89 505h172z" />
<glyph unicode="&#x427;" horiz-adv-x="658" d="M550 0h-172l34 193q-15 -2 -30 -3t-31 -1q-60 0 -111 17.5t-88 50t-58 79.5t-21 106q0 31 6 63l27 155h172l-30 -172q-2 -12 -3 -23.5t-1 -19.5q0 -31 10 -51t26.5 -32t38 -16.5t45.5 -4.5q17 0 36 1.5t39 5.5l55 312h172z" />
<glyph unicode="&#x428;" horiz-adv-x="1048" d="M940 0h-916l116 660h172l-89 -505h200l89 505h172l-89 -505h200l89 505h172z" />
<glyph unicode="&#x429;" horiz-adv-x="1095" d="M967 155h93l-52 -296h-172l25 141h-837l116 660h172l-89 -505h200l89 505h172l-89 -505h200l89 505h172z" />
<glyph unicode="&#x42a;" horiz-adv-x="649" d="M300 455h69q57 0 103 -15t78 -43t49.5 -67.5t17.5 -88.5q0 -56 -22 -101t-61 -76t-92.5 -47.5t-116.5 -16.5h-277l89 505h-100l27 155h272zM274 305l-27 -155h107q39 0 63 21t24 59q0 35 -19.5 55t-54.5 20h-93z" />
<glyph unicode="&#x42b;" horiz-adv-x="929" d="M276 455h69q57 0 103 -15t78 -43t49.5 -67.5t17.5 -88.5q0 -56 -22 -101t-61 -76t-92.5 -47.5t-116.5 -16.5h-277l116 660h172zM250 305l-28 -155h108q39 0 63 21t24 59q0 35 -19.5 55t-54.5 20h-93zM821 0h-172l116 660h172z" />
<glyph unicode="&#x42c;" horiz-adv-x="625" d="M276 455h69q57 0 103 -15t78 -43t49.5 -67.5t17.5 -88.5q0 -56 -22 -101t-61 -76t-92.5 -47.5t-116.5 -16.5h-277l116 660h172zM250 305l-28 -155h108q39 0 63 21t24 59q0 35 -19.5 55t-54.5 20h-93z" />
<glyph unicode="&#x42d;" horiz-adv-x="723" d="M373 672q73 0 134 -24t105 -66.5t68.5 -101.5t24.5 -128q0 -77 -30 -143.5t-82 -115.5t-121 -77t-148 -28q-106 0 -183 50t-114 140l140 83q25 -55 65.5 -85t101.5 -30q66 0 114 33.5t68 90.5h-256l26 144h231q-18 47 -59 73.5t-98 26.5t-99.5 -26t-77.5 -74l-121 95 q53 78 133.5 120.5t177.5 42.5z" />
<glyph unicode="&#x42e;" horiz-adv-x="1048" d="M270 419h79q18 56 52 102.5t80 80t102.5 52t118.5 18.5q71 0 131 -24t104 -66.5t68.5 -101.5t24.5 -128q0 -77 -30 -143.5t-81.5 -115.5t-120 -77t-145.5 -28q-65 0 -120 20.5t-97 57t-68.5 87t-33.5 111.5h-92l-46 -264h-172l116 660h172zM689 514q-41 0 -75.5 -15 t-60.5 -41t-40.5 -62.5t-14.5 -79.5q0 -39 12.5 -70.5t34 -53.5t52 -34t66.5 -12q40 0 75 15t61 41t40.5 62.5t14.5 79.5q0 39 -12.5 70.5t-34 53.5t-52 34t-66.5 12z" />
<glyph unicode="&#x42f;" horiz-adv-x="650" d="M542 0h-172l30 173h-32h-21t-21 2l-144 -175h-204l195 236q-34 29 -52 71t-18 95q0 60 23.5 108t65.5 81.5t99 51t124 17.5h243zM383 510q-46 0 -75 -25t-29 -71q0 -42 23.5 -66.5t66.5 -24.5h57l33 187h-76z" />
<glyph unicode="&#x430;" horiz-adv-x="624" d="M297 503q49 0 83.5 -14.5t56.5 -40.5l7 42h172l-86 -490h-161l7 41q-50 -53 -133 -53q-49 0 -88.5 19t-67.5 50.5t-43 73.5t-15 88q0 45 15.5 95t48 92t83 69.5t121.5 27.5zM310 349q-45 0 -74 -32t-30 -79q-1 -44 24.5 -70.5t66.5 -26.5q45 0 75 30.5t31 77.5 q1 45 -25.5 72.5t-67.5 27.5z" />
<glyph unicode="&#x431;" horiz-adv-x="614" d="M618 610l-175 -25q-73 -11 -117 -43t-64 -95q22 15 48.5 23.5t58.5 8.5q45 0 84.5 -17.5t68 -48.5t45 -73.5t16.5 -92.5q0 -55 -20 -102t-56 -82t-86.5 -55t-111.5 -20q-56 0 -103.5 17.5t-82 50.5t-54 80.5t-19.5 107.5q0 11 1 24.5t4 33.5l7 39q15 90 41.5 158.5 t69 116.5t103.5 77.5t145 41.5l188 27zM320 325q-36 0 -64 -23.5t-31 -63.5q-3 -42 22.5 -69t64.5 -27t67 27t28 69q0 39 -24.5 63t-62.5 24z" />
<glyph unicode="&#x432;" horiz-adv-x="578" d="M309 502q36 0 74 -7t69.5 -24t51.5 -45.5t20 -70.5q0 -29 -11 -53t-35 -42q26 -14 41 -39.5t15 -59.5q0 -32 -14 -62.5t-44 -55.5t-77 -40t-113 -15q-50 0 -94 10t-77 31.5t-52.5 55t-19.5 80.5q0 25 6 60l16 89q16 90 79 139t165 49zM207 196v-7q0 -32 18.5 -50 t70.5 -18q42 0 58.5 11t16.5 29q0 17 -12.5 26t-41.5 9h-110zM308 369q-73 0 -82 -57l-2 -12h90q23 0 35 10t12 26q0 33 -53 33z" />
<glyph unicode="&#x433;" horiz-adv-x="456" d="M238 502q43 0 79 -9t61.5 -27.5t39.5 -45.5t14 -63q0 -60 -42.5 -100t-133.5 -70l-60 -20q-17 -5 -25 -10.5t-8 -13.5q0 -12 12.5 -16.5t31.5 -4.5q35 0 72 12t72 36l62 -106q-38 -37 -90 -56.5t-112 -19.5q-29 0 -65 5.5t-68.5 22t-54.5 46.5t-22 78q0 64 44.5 101 t132.5 66l60 19q16 5 24 9.5t8 13.5q0 18 -41 18q-26 0 -52.5 -6.5t-52.5 -22.5l-61 107q40 30 82 43.5t93 13.5z" />
<glyph unicode="&#x434;" horiz-adv-x="592" d="M291 -12q-57 0 -105 18t-82.5 50t-54 76.5t-19.5 97.5q0 54 19 100t53 79.5t79 53t98 19.5q32 0 60 -8t54 -27q-6 31 -24 55t-51 44.5t-83 40.5t-121 43l58 144q100 -21 176 -51t127 -75.5t77 -111t26 -156.5q0 -36 -4.5 -79t-16.5 -86.5t-32.5 -84.5t-52.5 -72.5 t-76.5 -50.5t-104.5 -19zM290 142q20 0 38 7.5t31.5 20.5t21.5 31.5t8 39.5q0 40 -25.5 65t-62.5 25q-41 0 -68 -29.5t-27 -72.5q0 -40 24 -63.5t60 -23.5z" />
<glyph unicode="&#x435;" horiz-adv-x="562" d="M312 502q53 0 95 -17.5t71 -47t44.5 -68.5t15.5 -82q0 -28 -6 -54.5t-14 -46.5h-316q13 -29 40 -42.5t68 -13.5q36 0 69 10t65 28l55 -114q-95 -66 -204 -66q-60 0 -108.5 18t-83.5 50.5t-54 76.5t-19 96q0 57 22 107t60.5 86.5t89.5 58t110 21.5zM298 369 q-33 0 -58.5 -19t-37.5 -54h174q-1 35 -24 54t-54 19z" />
<glyph unicode="&#x436;" horiz-adv-x="890" d="M716 252l132 -252h-187l-129 247l-43 -247h-172l43 247l-191 -247h-211l222 274l-124 216h192l119 -207l36 207h172l-36 -202l170 202h213z" />
<glyph unicode="&#x437;" horiz-adv-x="516" d="M238 -12q-30 0 -62.5 4t-65 15t-61.5 32t-51 56l101 94q22 -23 56.5 -41t91.5 -18q52 0 52 28q0 13 -10 21.5t-31 8.5h-93l21 118h83q15 0 27.5 5t12.5 20q0 14 -14 22t-46 8q-43 0 -71.5 -9.5t-52.5 -25.5l-68 107q41 37 95.5 53t116.5 16q32 0 69 -6t68.5 -22.5 t52.5 -45t21 -72.5q0 -40 -18 -69.5t-49 -49.5q23 -20 35.5 -46t12.5 -53t-13 -54t-40 -48t-69.5 -34.5t-100.5 -13.5z" />
<glyph unicode="&#x438;" horiz-adv-x="597" d="M499 0h-157l7 40q-26 -23 -59.5 -37.5t-76.5 -14.5q-38 0 -69 12t-54 34.5t-35.5 54t-12.5 69.5q0 24 6 57l48 275h172l-45 -258q-4 -20 -4 -33q0 -31 19.5 -47.5t48.5 -16.5q28 0 49 16.5t27 51.5l50 287h172z" />
<glyph unicode="&#x439;" horiz-adv-x="597" d="M499 0h-157l7 40q-26 -23 -59.5 -37.5t-76.5 -14.5q-38 0 -69 12t-54 34.5t-35.5 54t-12.5 69.5q0 24 6 57l48 275h172l-45 -258q-4 -20 -4 -33q0 -31 19.5 -47.5t48.5 -16.5q28 0 49 16.5t27 51.5l50 287h172zM575 755q-5 -39 -20.5 -73t-41 -59t-60.5 -39.5t-78 -14.5 q-39 0 -71.5 12t-55 34t-35 52.5t-12.5 66.5v10t1 11h133v-10q0 -23 13 -37t36 -14t38 14.5t20 46.5h133z" />
<glyph unicode="&#x43a;" horiz-adv-x="595" d="M242 295l185 195h200l-209 -224l135 -266h-185l-132 264l-46 -264h-172l86 490h172z" />
<glyph unicode="&#x43b;" horiz-adv-x="604" d="M510 0h-172l60 348h-34q-22 0 -35.5 -6t-22.5 -19.5t-16 -35t-15 -51.5q-17 -63 -38.5 -109.5t-55.5 -76.5t-85 -44t-129 -12l26 148q34 0 54.5 10t33.5 29t21 45t16 59q9 37 22 73.5t37.5 66t66 47.5t109.5 18h243z" />
<glyph unicode="&#x43c;" horiz-adv-x="697" d="M595 0h-172l28 159l-96 -85h-55l-79 103l-31 -177h-172l88 502h55l189 -251l280 251h53z" />
<glyph unicode="&#x43d;" horiz-adv-x="610" d="M508 0h-172l32 183h-146l-32 -183h-172l88 500h172l-31 -173h146l31 173h172z" />
<glyph unicode="&#x43e;" horiz-adv-x="607" d="M317 502q55 0 103 -19t83 -52t55 -78.5t20 -97.5q0 -57 -23.5 -106t-63 -85t-91.5 -56t-110 -20q-56 0 -103.5 19t-82 52t-54 78t-19.5 97q0 57 23 106t62.5 85t91.5 56.5t109 20.5zM310 348q-44 0 -73 -31.5t-30 -78.5q-1 -44 24.5 -70t65.5 -26q44 0 74 30t31 77 q1 45 -25.5 72t-66.5 27z" />
<glyph unicode="&#x43f;" horiz-adv-x="601" d="M390 502q37 0 68.5 -12t54.5 -34.5t35.5 -54t12.5 -69.5q0 -24 -6 -57l-48 -275h-172l45 258q4 20 4 33q0 31 -19.5 47.5t-48.5 16.5q-28 0 -49 -16.5t-27 -51.5l-50 -287h-172l86 490h157l-8 -41q26 23 60 38t77 15z" />
<glyph unicode="&#x440;" horiz-adv-x="632" d="M391 502q49 0 88.5 -19t67.5 -50.5t43 -73.5t15 -88q0 -45 -15.5 -95t-48 -92t-83.5 -69.5t-121 -27.5q-50 0 -84.5 14.5t-56.5 40.5l-38 -222h-172l118 670h157l-9 -47q51 59 139 59zM337 348q-45 0 -75 -30t-31 -77q-1 -45 25.5 -72.5t67.5 -27.5q45 0 74.5 32t30.5 79 q1 44 -25 70t-67 26z" />
<glyph unicode="&#x441;" horiz-adv-x="559" d="M318 500q83 0 140.5 -39t81.5 -102l-127 -84q-16 27 -39 49t-63 22q-47 0 -76 -32t-29 -79q0 -43 25.5 -68t67.5 -25q36 0 61 17.5t44 43.5l110 -94q-35 -55 -92.5 -88t-133.5 -33q-55 0 -102.5 18t-82 50.5t-54 77t-19.5 97.5q0 57 23 106.5t62.5 85.5t91.5 56.5 t111 20.5z" />
<glyph unicode="&#x442;" horiz-adv-x="908" d="M695 502q82 0 127.5 -46.5t45.5 -122.5q0 -25 -6 -58l-48 -275h-172l46 264q3 16 3 28q0 29 -17 46t-47 17q-28 0 -48.5 -16.5t-26.5 -51.5l-50 -287h-172l46 265q3 15 3 27q0 29 -17 46t-47 17q-28 0 -48.5 -16.5t-26.5 -51.5l-50 -287h-172l86 490h157l-7 -41 q26 23 59.5 38t77.5 15t79.5 -16.5t58.5 -45.5q30 27 72.5 44.5t93.5 17.5z" />
<glyph unicode="&#x443;" horiz-adv-x="604" d="M516 37q-10 -56 -34 -98.5t-59.5 -71.5t-80 -44t-94.5 -15q-33 0 -67 6.5t-67 20.5t-63 35t-55 50l100 115q38 -32 72.5 -52.5t79.5 -20.5q38 0 63.5 17.5t33.5 62.5l3 19q-24 -17 -53.5 -26t-62.5 -9q-39 0 -71 13t-54.5 35.5t-35 53t-12.5 65.5q0 12 1.5 26.5t3.5 26.5 l43 244h172l-42 -238q-1 -5 -1.5 -9.5t-0.5 -9.5q0 -27 19.5 -44.5t48.5 -17.5q27 0 49 16t27 48l45 255h172z" />
<glyph unicode="&#x444;" horiz-adv-x="815" d="M539 503q53 -2 98 -20t78 -49.5t52 -75t19 -97.5q0 -51 -19 -99.5t-59.5 -87t-104.5 -61.5t-154 -23l-29 -170h-172l29 169q-53 2 -98 20t-78 49.5t-51.5 75t-18.5 97.5q0 51 18.5 99.5t59 86.5t104.5 61.5t154 23.5l43 248h172zM618 252q0 54 -29.5 80t-79.5 28 l-40 -228h3q64 0 105 28t41 92zM199 240q0 -54 29 -80t79 -28l40 228h-2q-64 0 -105 -28t-41 -92z" />
<glyph unicode="&#x445;" horiz-adv-x="553" d="M292 374l92 116h201l-212 -245l138 -245h-181l-69 129l-102 -129h-201l222 258l-128 232h181z" />
<glyph unicode="&#x446;" horiz-adv-x="655" d="M536 210q-3 -15 -3 -24q0 -42 46 -42h38l-50 -285h-172l27 156q-22 12 -39 32q-24 -25 -61 -42t-93 -17q-91 0 -139 46.5t-48 123.5q0 24 6 57l48 275h172l-46 -264q-3 -14 -3 -27q0 -31 19.5 -47.5t48.5 -16.5q28 0 49 16.5t27 51.5l50 287h172z" />
<glyph unicode="&#x447;" horiz-adv-x="578" d="M475 0h-172l26 149q-14 -3 -28 -4t-29 -1q-48 0 -88.5 14.5t-70 41.5t-45.5 65t-16 85q0 14 1.5 26.5t3.5 25.5l16 88h172l-17 -96q-1 -5 -1.5 -9.5t-0.5 -11.5q0 -31 17 -53t61 -22q26 0 53 7l33 185h172z" />
<glyph unicode="&#x448;" horiz-adv-x="908" d="M806 0h-157l7 40q-26 -23 -60 -37.5t-77 -14.5q-44 0 -79.5 16t-58.5 46q-30 -27 -72.5 -44.5t-94.5 -17.5q-81 0 -126.5 46.5t-45.5 122.5q0 25 6 58l48 275h172l-46 -267q-3 -12 -3 -25q0 -29 17 -46t47 -17q28 0 48.5 16.5t26.5 51.5l50 287h172l-46 -267 q-3 -12 -3 -25q0 -29 17 -46t47 -17q28 0 48.5 16.5t26.5 51.5l50 287h172z" />
<glyph unicode="&#x449;" horiz-adv-x="962" d="M843 210q-3 -15 -3 -24q0 -42 46 -42h38l-50 -285h-172l27 156q-22 12 -39 32q-24 -25 -61 -42t-93 -17q-54 0 -92.5 16.5t-61.5 46.5q-30 -28 -72.5 -45.5t-94.5 -17.5q-82 0 -127.5 46.5t-45.5 122.5q0 25 6 58l48 275h172l-46 -266q-3 -15 -3 -26q0 -29 17 -46t47 -17 q28 0 48.5 16.5t26.5 51.5l50 287h172l-46 -265q-3 -15 -3 -27q-1 -31 17.5 -47t47.5 -16q28 0 48 16.5t26 51.5l50 287h172z" />
<glyph unicode="&#x44a;" horiz-adv-x="597" d="M296 392h45q47 -1 87 -12t69 -33.5t45.5 -58t16.5 -84.5q0 -53 -19 -93.5t-51.5 -67.5t-76 -41t-91.5 -14q-47 0 -89 13t-73.5 37.5t-50 60t-18.5 81.5q0 20 4 43l22 125h-97l26 142h268zM270 250l-7 -43q-3 -15 -3 -23q0 -23 18 -37.5t44 -14.5t43.5 15.5t17.5 45.5 q0 31 -19.5 44t-51.5 13h-42z" />
<glyph unicode="&#x44b;" horiz-adv-x="816" d="M250 392h46q47 0 87 -11t69 -34t45.5 -58.5t16.5 -84.5q0 -53 -19 -93.5t-51.5 -67.5t-76 -41t-91.5 -14q-47 0 -89 13t-73.5 37.5t-50 60t-18.5 81.5q0 20 4 43l47 267h172zM714 0h-172l86 490h172zM225 250l-7 -43q-3 -15 -3 -23q0 -23 18 -37.5t44 -14.5t43.5 15.5 t17.5 45.5q0 31 -19.5 44t-51.5 13h-42z" />
<glyph unicode="&#x44c;" d="M258 392h46q47 0 87 -11t69 -34t45.5 -58.5t16.5 -84.5q0 -53 -19 -93.5t-51.5 -67.5t-76 -41t-91.5 -14q-47 0 -89 13t-73.5 37.5t-50 60t-18.5 81.5q0 20 4 43l47 267h172zM233 250l-7 -43q-3 -15 -3 -23q0 -23 18 -37.5t44 -14.5t43.5 15.5t17.5 45.5q0 31 -19.5 44 t-51.5 13h-42z" />
<glyph unicode="&#x44d;" horiz-adv-x="566" d="M279 500q55 0 102.5 -18t82 -50.5t54 -77t19.5 -97.5q0 -57 -23 -106.5t-62.5 -85.5t-92 -56.5t-110.5 -20.5q-83 0 -140.5 39t-81.5 102l120 80q8 -14 18 -27.5t23 -24t30 -17t38 -6.5q33 0 58.5 16t39.5 42h-153l20 112h136q-13 23 -36 36.5t-53 13.5q-39 0 -65 -19 t-46 -45l-104 89q35 55 92.5 88t133.5 33z" />
<glyph unicode="&#x44e;" horiz-adv-x="871" d="M247 321h72q14 40 40 73.5t60.5 57.5t76.5 37t87 13q54 0 101.5 -19t82.5 -52t55 -78.5t20 -97.5q0 -57 -23.5 -106t-63 -85t-91 -56t-108.5 -20q-47 0 -87.5 14t-72.5 39t-54 60t-31 76h-89l-32 -177h-172l86 490h172zM574 348q-44 0 -73 -31.5t-30 -78.5 q-1 -44 24.5 -70t65.5 -26q44 0 74 30t31 77q1 45 -25.5 72t-66.5 27z" />
<glyph unicode="&#x44f;" horiz-adv-x="588" d="M485 0h-172l19 106h-44h-21l-97 -106h-200l155 161q-52 47 -52 130q0 49 19 86.5t52.5 62.5t80 38t100.5 13h247zM307 352q-27 0 -44 -14t-17 -41q0 -24 14 -37t38 -13h59l18 105h-68z" />
<glyph unicode="&#x450;" horiz-adv-x="562" d="M312 502q53 0 95 -17.5t71 -47t44.5 -68.5t15.5 -82q0 -28 -6 -54.5t-14 -46.5h-316q13 -29 40 -42.5t68 -13.5q36 0 69 10t65 28l55 -114q-95 -66 -204 -66q-60 0 -108.5 18t-83.5 50.5t-54 76.5t-19 96q0 57 22 107t60.5 86.5t89.5 58t110 21.5zM298 369 q-33 0 -58.5 -19t-37.5 -54h174q-1 35 -24 54t-54 19zM378 574h-120l-84 176l10 30h194v-206z" />
<glyph unicode="&#x451;" horiz-adv-x="562" d="M312 502q53 0 95 -17.5t71 -47t44.5 -68.5t15.5 -82q0 -28 -6 -54.5t-14 -46.5h-316q13 -29 40 -42.5t68 -13.5q36 0 69 10t65 28l55 -114q-95 -66 -204 -66q-60 0 -108.5 18t-83.5 50.5t-54 76.5t-19 96q0 57 22 107t60.5 86.5t89.5 58t110 21.5zM298 369 q-33 0 -58.5 -19t-37.5 -54h174q-1 35 -24 54t-54 19zM501 771q41 0 69.5 -26.5t28.5 -67.5q0 -18 -7.5 -35t-21 -30t-31.5 -20.5t-38 -7.5q-18 0 -35.5 7.5t-31 20.5t-22 30t-8.5 35q0 20 8.5 37.5t22 30t31 19.5t35.5 7zM236 771q41 0 69.5 -26.5t28.5 -67.5 q0 -18 -7.5 -35t-21 -30t-31.5 -20.5t-38 -7.5q-18 0 -35.5 7.5t-31 20.5t-22 30t-8.5 35q0 20 8.5 37.5t22 30t31 19.5t35.5 7z" />
<glyph unicode="&#x452;" horiz-adv-x="610" d="M474 533h-185l-17 -99q22 17 51 27.5t66 10.5q39 0 70.5 -12t54.5 -34.5t35.5 -53.5t12.5 -69q0 -25 -6 -58l-43 -245q-34 -192 -219 -192q-23 0 -50 4t-54 17l25 142q18 -3 30.5 -4.5t24.5 -1.5q36 0 53 15.5t23 51.5l36 204q1 6 2 13t1 13q0 29 -19 46t-49 17 q-28 0 -49 -16.5t-27 -51.5l-45 -257h-172l94 533h-76l24 139h76l14 78h172l-14 -78h184z" />
<glyph unicode="&#x453;" horiz-adv-x="456" d="M238 502q43 0 79 -9t61.5 -27.5t39.5 -45.5t14 -63q0 -60 -42.5 -100t-133.5 -70l-60 -20q-17 -5 -25 -10.5t-8 -13.5q0 -12 12.5 -16.5t31.5 -4.5q35 0 72 12t72 36l62 -106q-38 -37 -90 -56.5t-112 -19.5q-29 0 -65 5.5t-68.5 22t-54.5 46.5t-22 78q0 64 44.5 101 t132.5 66l60 19q16 5 24 9.5t8 13.5q0 18 -41 18q-26 0 -52.5 -6.5t-52.5 -22.5l-61 107q40 30 82 43.5t93 13.5zM532 750l-178 -176h-134l100 206h217z" />
<glyph unicode="&#x454;" horiz-adv-x="565" d="M346 193l-140 -1q11 -27 35 -42.5t58 -15.5q39 0 65 19t46 45l104 -89q-35 -55 -92.5 -88t-133.5 -33q-55 0 -102.5 18t-82 50.5t-54 77t-19.5 97.5q0 57 23 106.5t62.5 86t91.5 57.5t111 21q83 0 140.5 -39t81.5 -102l-120 -80q-8 14 -18 27.5t-23 24t-30 17t-38 6.5 q-31 0 -54.5 -14t-38.5 -37h148z" />
<glyph unicode="&#x455;" horiz-adv-x="456" d="M242 502q63 0 112.5 -22t84.5 -64l-96 -96q-23 25 -49 37t-48 12q-29 0 -29 -20q0 -10 7 -15.5t20 -10.5l45 -17q61 -24 98 -58.5t37 -88.5q0 -27 -10.5 -57t-34.5 -55.5t-63 -42t-96 -16.5q-73 0 -132.5 29.5t-92.5 83.5l101 93q28 -32 57.5 -52.5t67.5 -20.5 q17 0 29.5 5t12.5 17q0 9 -7 15t-20 11l-47 18q-60 24 -97 59.5t-37 96.5q0 37 14 66.5t39 50t59 31.5t75 11z" />
<glyph unicode="&#x456;" horiz-adv-x="284" d="M186 0h-172l86 490h172zM220 779q22 0 41 -8t33.5 -21.5t23 -32t8.5 -40.5q0 -21 -8.5 -39.5t-23 -32t-33.5 -21.5t-41 -8t-41 8t-33.5 21.5t-22.5 32t-8 39.5q0 44 30.5 73t74.5 29z" />
<glyph unicode="&#x457;" horiz-adv-x="284" d="M186 0h-172l86 490h172zM352 771q41 0 69.5 -26.5t28.5 -67.5q0 -18 -7.5 -35t-21 -30t-31.5 -20.5t-38 -7.5q-18 0 -35.5 7.5t-31 20.5t-22 30t-8.5 35q0 20 8.5 37.5t22 30t31 19.5t35.5 7zM97 771q41 0 69.5 -26.5t28.5 -67.5q0 -18 -7.5 -35t-21 -30t-31.5 -20.5 t-38 -7.5q-18 0 -35.5 7.5t-31 20.5t-22 30t-8.5 35q0 20 8.5 37.5t22 30t31 19.5t35.5 7z" />
<glyph unicode="&#x458;" horiz-adv-x="283" d="M185 -8q-16 -92 -71 -138t-143 -46q-32 0 -56.5 5.5t-44.5 14.5l25 142q13 -2 24.5 -3.5t23.5 -1.5q36 0 53 14.5t22 44.5l82 466h172zM219 779q22 0 41 -8t33.5 -21.5t23 -32t8.5 -40.5q0 -21 -8.5 -39.5t-23 -32t-33.5 -21.5t-41 -8t-41 8t-33.5 21.5t-22.5 32t-8 39.5 q0 44 30.5 73t74.5 29z" />
<glyph unicode="&#x459;" horiz-adv-x="880" d="M578 392h46q47 0 87 -11t69 -34t45.5 -58.5t16.5 -84.5q0 -53 -19 -93.5t-51.5 -67.5t-76 -41t-91.5 -14q-47 0 -89 13t-73.5 37.5t-50 60t-18.5 81.5q0 20 4 43l22 125h-35q-22 0 -35.5 -6t-22.5 -19.5t-16 -35t-15 -51.5q-17 -63 -38.5 -109.5t-55.5 -76.5t-85 -44 t-129 -12l26 148q34 0 54.5 10t33.5 29t21 45t16 59q9 37 22 73.5t37.5 66t66 47.5t109.5 18h243zM553 250l-7 -43q-3 -15 -3 -23q0 -23 18 -37.5t44 -14.5t43.5 15.5t17.5 45.5q0 31 -19.5 44t-51.5 13h-42z" />
<glyph unicode="&#x45a;" horiz-adv-x="863" d="M246 321h131l30 169h172l-18 -98h46q47 0 87 -11t69 -34t45.5 -58.5t16.5 -84.5q0 -53 -19 -93.5t-51.5 -67.5t-76 -41t-91.5 -14q-47 0 -89 12.5t-73.5 37t-50 60t-18.5 81.5h-135l-31 -179h-172l86 490h172zM536 250l-7 -43q-3 -15 -3 -23q0 -23 18 -37.5t44 -14.5 t43.5 15.5t17.5 45.5q0 31 -19.5 44t-51.5 13h-42z" />
<glyph unicode="&#x45b;" horiz-adv-x="610" d="M474 533h-185l-17 -99q22 17 51 27.5t66 10.5q39 0 70.5 -12t54.5 -34.5t35.5 -53.5t12.5 -69q0 -25 -6 -58l-43 -245h-172l41 237q1 6 2 12.5t1 12.5q0 29 -19 46t-49 17q-28 0 -49 -16.5t-27 -51.5l-45 -257h-172l94 533h-76l24 139h76l14 78h172l-14 -78h184z" />
<glyph unicode="&#x45c;" horiz-adv-x="595" d="M242 295l185 195h200l-209 -224l135 -266h-185l-132 264l-46 -264h-172l86 490h172zM606 750l-178 -176h-134l100 206h217z" />
<glyph unicode="&#x45d;" horiz-adv-x="597" d="M499 0h-157l7 40q-26 -23 -59.5 -37.5t-76.5 -14.5q-38 0 -69 12t-54 34.5t-35.5 54t-12.5 69.5q0 24 6 57l48 275h172l-45 -258q-4 -20 -4 -33q0 -31 19.5 -47.5t48.5 -16.5q28 0 49 16.5t27 51.5l50 287h172zM389 574h-120l-84 176l10 30h194v-206z" />
<glyph unicode="&#x45e;" horiz-adv-x="608" d="M516 37q-10 -56 -34 -98.5t-59.5 -71.5t-80 -44t-94.5 -15q-33 0 -67 6.5t-67 20.5t-63 35t-55 50l100 115q38 -32 72.5 -52.5t79.5 -20.5q38 0 63.5 17.5t33.5 62.5l3 19q-24 -17 -53.5 -26t-62.5 -9q-39 0 -71 13t-54.5 35.5t-35 53t-12.5 65.5q0 12 1.5 26.5t3.5 26.5 l43 244h172l-42 -238q-1 -5 -1.5 -9.5t-0.5 -9.5q0 -27 19.5 -44.5t48.5 -17.5q27 0 49 16t27 48l45 255h172zM586 755q-5 -39 -20.5 -73t-41 -59t-60.5 -39.5t-78 -14.5q-39 0 -71.5 12t-55 34t-35 52.5t-12.5 66.5v10t1 11h133v-10q0 -23 13 -37t36 -14t38 14.5t20 46.5 h133z" />
<glyph unicode="&#x45f;" horiz-adv-x="597" d="M499 0h-157l7 40q-26 -23 -59.5 -37.5t-76.5 -14.5q-38 0 -69 12t-54 34.5t-35.5 54t-12.5 69.5q0 24 6 57l48 275h172l-46 -264q-3 -14 -3 -27q0 -31 19.5 -47.5t48.5 -16.5q28 0 49 16.5t27 51.5l50 287h172zM304 -220h-151l11 176h171z" />
<glyph unicode="&#x462;" horiz-adv-x="625" d="M304 612h254l-25 -139h-254l-10 -60h96q104 0 164.5 -52t60.5 -142q0 -51 -20 -91.5t-55.5 -69t-84 -43.5t-105.5 -15h-301l83 473h-76l25 139h76l8 48h172zM243 265l-21 -115h127q29 0 47 16t18 44q0 25 -14.5 40t-40.5 15h-116z" />
<glyph unicode="&#x463;" horiz-adv-x="568" d="M291 540h194l-24 -138h-194l-7 -39h54q46 0 85.5 -9t68 -28.5t44.5 -52t16 -78.5q0 -51 -19 -89.5t-51 -64.5t-75.5 -39.5t-91.5 -13.5t-90 13t-73.5 37.5t-50 60t-18.5 81.5q0 20 4 43l32 179h-76l24 138h76l37 210h172zM236 230l-4 -23q-3 -15 -3 -24q0 -23 18 -37 t45 -14q25 0 42.5 13t17.5 41q0 15 -5.5 24t-15.5 13.5t-22.5 5.5t-27.5 1h-45z" />
<glyph unicode="&#x472;" horiz-adv-x="776" d="M429 672q72 0 132 -24t104 -66.5t68.5 -101.5t24.5 -128q0 -77 -30 -143.5t-81.5 -115.5t-120.5 -77t-147 -28q-72 0 -132 24t-104 66.5t-68.5 101.5t-24.5 128q0 77 30 143.5t81.5 115.5t120.5 77t147 28zM391 146q64 0 112.5 35.5t68.5 95.5q-48 -22 -95 -22 q-25 0 -45 4.5t-39 10t-39 10t-44 4.5q-39 0 -79 -15q13 -58 56 -90.5t104 -32.5zM336 432q24 0 44 -4.5t39 -10t39 -10t45 -4.5q34 0 67 10q-18 48 -58.5 74.5t-94.5 26.5q-56 0 -100 -27t-68 -73q45 18 87 18z" />
<glyph unicode="&#x473;" horiz-adv-x="607" d="M317 502q55 0 103 -19t83 -52t55 -78.5t20 -97.5q0 -57 -23.5 -106t-63 -85t-91.5 -56t-110 -20q-56 0 -103.5 19t-82 52t-54 78t-19.5 97q0 57 23 106t62.5 85t91.5 56.5t109 20.5zM296 131q34 0 60.5 15.5t42.5 42.5q-12 -5 -24 -6.5t-24 -1.5q-17 0 -30.5 3t-26.5 7 t-26.5 7t-29.5 3q-20 0 -38 -6q11 -30 36 -47t60 -17zM257 310q16 0 30 -3t27 -7t27 -7t31 -3q20 0 36 4q-11 31 -37 48t-60 17q-33 0 -58.5 -15.5t-40.5 -41.5q11 4 22 6t23 2z" />
<glyph unicode="&#x474;" horiz-adv-x="675" d="M659 672q26 0 48.5 -4t40.5 -10l-26 -147q-24 3 -38 3q-27 0 -44.5 -14t-36.5 -44l-291 -468h-55l-182 672h180l85 -321l121 200q22 37 44.5 62.5t46.5 41t50 22.5t57 7z" />
<glyph unicode="&#x475;" horiz-adv-x="572" d="M545 502q20 0 39.5 -3.5t33.5 -8.5l-25 -141h-31q-20 0 -34.5 -8t-28.5 -28l-223 -325h-55l-168 502h176l63 -215l71 111q35 56 79.5 86t102.5 30z" />
<glyph unicode="&#x490;" horiz-adv-x="505" d="M528 505h-243l-89 -505h-172l116 660h243l21 121h172z" />
<glyph unicode="&#x491;" horiz-adv-x="479" d="M485 346h-235l-60 -346h-172l86 490h235l23 132h172z" />
<glyph unicode="&#x492;" horiz-adv-x="524" d="M441 224h-194l-39 -224h-172l39 224h-88l28 155h87l50 281h418l-27 -155h-246l-22 -126h194z" />
<glyph unicode="&#x493;" horiz-adv-x="490" d="M413 126h-195l-22 -126h-172l22 126h-76l24 139h76l40 225h407l-26 -144h-235l-14 -81h195z" />
<glyph unicode="&#x496;" horiz-adv-x="1054" d="M630 363l237 297h214l-269 -330l96 -175h121l-52 -296h-172l25 141h-32l-174 328l-57 -328h-172l57 326l-272 -326h-220l312 362l-159 298h191l155 -298l52 298h172z" />
<glyph unicode="&#x497;" horiz-adv-x="921" d="M540 288l169 202h213l-207 -239l55 -109h113l-50 -283h-172l25 141h-29l-125 246l-43 -246h-172l43 247l-191 -247h-211l222 274l-124 216h192l119 -207l36 207h172z" />
<glyph unicode="&#x498;" horiz-adv-x="592" d="M349 672q49 0 89.5 -14.5t69 -39.5t44.5 -59.5t16 -73.5q0 -42 -19 -82.5t-60 -69.5q29 -22 45.5 -53.5t16.5 -70.5q0 -38 -16 -77.5t-48.5 -71.5t-80.5 -52t-112 -20q-38 0 -79 9t-78.5 29.5t-69 54.5t-52.5 85l128 76q33 -57 70.5 -76.5t79.5 -19.5q40 0 64 14.5 t24 47.5q0 22 -14.5 37.5t-52.5 15.5h-113l25 138h95q37 0 57.5 17t20.5 43q0 28 -22 42t-54 14q-71 0 -136 -72l-106 96q22 31 52.5 55.5t65.5 42t73.5 26.5t76.5 9zM308 48q24 -17 37.5 -43.5t13.5 -53.5q0 -22 -9.5 -47t-30.5 -46.5t-54 -35.5t-80 -14q-29 0 -52.5 5 t-43.5 12l19 110q14 -2 30 -4t30 -2q24 0 39.5 9.5t22.5 40.5q3 14 4.5 26.5t3.5 20.5z" />
<glyph unicode="&#x499;" horiz-adv-x="516" d="M238 -12q-30 0 -62.5 4t-65 15t-61.5 32t-51 56l101 94q22 -23 56.5 -41t91.5 -18q52 0 52 28q0 13 -10 21.5t-31 8.5h-93l21 118h83q15 0 27.5 5t12.5 20q0 14 -14 22t-46 8q-43 0 -71.5 -9.5t-52.5 -25.5l-68 107q41 37 95.5 53t116.5 16q32 0 69 -6t68.5 -22.5 t52.5 -45t21 -72.5q0 -40 -18 -69.5t-49 -49.5q23 -20 35.5 -46t12.5 -53t-13 -54t-40 -48t-69.5 -34.5t-100.5 -13.5zM274 48q24 -17 37.5 -43.5t13.5 -53.5q0 -22 -9.5 -47t-30.5 -46.5t-54 -35.5t-80 -14q-29 0 -52.5 5t-43.5 12l19 110q14 -2 30 -4t30 -2q24 0 39.5 9.5 t22.5 40.5q3 14 4.5 26.5t3.5 20.5z" />
<glyph unicode="&#x49a;" horiz-adv-x="703" d="M259 362l259 298h212l-288 -332l102 -173h134l-52 -296h-172l25 141h-26l-199 330l-58 -330h-172l116 660h172z" />
<glyph unicode="&#x49b;" horiz-adv-x="630" d="M240 284l178 206h213l-211 -239l57 -109h115l-50 -283h-172l25 141h-29l-132 250l-44 -250h-172l86 490h172z" />
<glyph unicode="&#x4a0;" horiz-adv-x="735" d="M299 362l259 298h212l-287 -330l208 -330h-188l-209 330l-58 -330h-172l89 505h-106l27 155h278z" />
<glyph unicode="&#x4a1;" horiz-adv-x="632" d="M279 295l185 195h200l-209 -224l135 -266h-185l-132 264l-46 -264h-172l60 346h-96l26 144h268z" />
<glyph unicode="&#x4a2;" horiz-adv-x="764" d="M636 155h93l-52 -296h-172l25 141h-93l46 264h-241l-46 -264h-172l116 660h172l-42 -241h241l42 241h172z" />
<glyph unicode="&#x4a3;" horiz-adv-x="664" d="M533 144h93l-50 -285h-182l25 141h-83l32 184h-146l-32 -184h-172l88 500h172l-31 -174h146l31 174h172z" />
<glyph unicode="&#x4aa;" horiz-adv-x="724" d="M389 48q24 -17 37.5 -43.5t13.5 -53.5q0 -22 -9.5 -47t-30.5 -46.5t-54 -35.5t-80 -14q-29 0 -52.5 5t-43.5 12l19 110q14 -2 30 -4t30 -2q24 0 39.5 9.5t22.5 40.5q3 14 4.5 26.5t3.5 20.5zM431 672q106 0 183 -50t114 -140l-140 -83q-25 55 -65.5 85t-101.5 30 q-42 0 -78 -15t-62 -41t-40.5 -62.5t-14.5 -79.5q0 -39 12 -70.5t34.5 -53.5t53.5 -34t69 -12q57 0 99.5 26t77.5 74l121 -95q-53 -78 -133.5 -120.5t-177.5 -42.5q-73 0 -134 24t-105 66.5t-68.5 101.5t-24.5 128q0 77 30 143.5t81.5 115.5t121 77t148.5 28z" />
<glyph unicode="&#x4ab;" horiz-adv-x="559" d="M301 48q24 -17 37.5 -43.5t13.5 -53.5q0 -22 -9.5 -47t-30.5 -46.5t-54 -35.5t-80 -14q-29 0 -52.5 5t-43.5 12l19 110q14 -2 30 -4t30 -2q24 0 39.5 9.5t22.5 40.5q3 14 4.5 26.5t3.5 20.5zM318 500q83 0 140.5 -39t81.5 -102l-127 -84q-16 27 -39 49t-63 22 q-47 0 -76 -32t-29 -79q0 -43 25.5 -68t67.5 -25q36 0 61 17.5t44 43.5l110 -94q-35 -55 -92.5 -88t-133.5 -33q-55 0 -102.5 18t-82 50.5t-54 77t-19.5 97.5q0 57 23 106.5t62.5 85.5t91.5 56.5t111 20.5z" />
<glyph unicode="&#x4ae;" horiz-adv-x="621" d="M399 249l-44 -249h-172l45 255l-156 405h171l93 -231l163 231h198z" />
<glyph unicode="&#x4af;" horiz-adv-x="571" d="M348 103l-50 -283h-172l50 282l-130 388h176l62 -216l139 216h190z" />
<glyph unicode="&#x4b0;" horiz-adv-x="651" d="M564 133h-171l-23 -133h-172l23 133h-169l27 155h151l-143 372h171l93 -231l163 231h198l-270 -372h149z" />
<glyph unicode="&#x4b1;" horiz-adv-x="579" d="M478 0h-147l-31 -180h-172l31 180h-143l24 139h110l-100 351h172l56 -247l147 247h192l-226 -351h111z" />
<glyph unicode="&#x4b2;" horiz-adv-x="639" d="M348 479l126 181h208l-256 -342l78 -163h110l-52 -296h-172l25 141h-17l-91 191l-139 -191h-208l271 354l-143 306h181z" />
<glyph unicode="&#x4b3;" horiz-adv-x="584" d="M373 245l57 -101h116l-50 -285h-172l25 141h-19l-69 129l-102 -129h-201l222 258l-128 232h181l59 -116l92 116h201z" />
<glyph unicode="&#x4b6;" horiz-adv-x="705" d="M248 488q-2 -12 -3 -23.5t-1 -19.5q0 -31 10 -51t26.5 -32t38 -16.5t45.5 -4.5q17 0 36 1.5t39 5.5l55 312h172l-89 -505h93l-52 -296h-172l25 141h-93l34 193q-15 -2 -30 -3t-31 -1q-60 0 -111 17.5t-88 50t-58 79.5t-21 106q0 31 6 63l27 155h172z" />
<glyph unicode="&#x4b7;" horiz-adv-x="631" d="M228 394q-1 -5 -1.5 -9.5t-0.5 -11.5q0 -31 17 -53t61 -22q26 0 53 7l33 185h172l-62 -346h93l-50 -285h-172l25 141h-93l27 152q-29 -6 -58 -6q-48 0 -88.5 14.5t-70 41t-45.5 64t-16 84.5q0 14 1.5 26.5t3.5 25.5l16 88h172z" />
<glyph unicode="&#x4ba;" horiz-adv-x="660" d="M276 454q18 3 36.5 5t36.5 2q55 0 101 -16t79 -46t51 -73t18 -97q0 -31 -6 -62l-29 -167h-172l32 184q2 12 3 23t1 19q0 24 -8 40t-21.5 25.5t-31.5 13.5t-38 4q-17 0 -37 -2.5t-42 -6.5l-53 -300h-172l116 660h172z" />
<glyph unicode="&#x4bb;" horiz-adv-x="604" d="M271 464q22 17 51 27.5t66 10.5q39 0 70.5 -12t54.5 -34.5t35.5 -53.5t12.5 -69q0 -25 -6 -58l-48 -275h-172l46 267q3 12 3 25q0 29 -19 46t-49 17q-28 0 -49 -16.5t-27 -51.5l-50 -287h-172l132 750h172z" />
<glyph unicode="&#x4c0;" horiz-adv-x="304" d="M196 0h-172l116 660h172z" />
<glyph unicode="&#x4c1;" horiz-adv-x="1046" d="M813 332l189 -332h-194l-183 329l-58 -329h-172l57 326l-272 -326h-220l312 362l-159 298h191l155 -298l52 298h172l-52 -297l236 297h214zM828 910q-5 -39 -20.5 -72.5t-41 -58.5t-60.5 -39.5t-78 -14.5q-39 0 -71.5 12t-55 34t-35 52t-12.5 66v10t1 11h133v-10 q0 -23 13 -36.5t36 -13.5t38 14.5t20 45.5h133z" />
<glyph unicode="&#x4c2;" horiz-adv-x="890" d="M716 252l132 -252h-187l-129 247l-43 -247h-172l43 247l-191 -247h-211l222 274l-124 216h192l119 -207l36 207h172l-36 -202l170 202h213zM723 755q-5 -39 -20.5 -73t-41 -59t-60.5 -39.5t-78 -14.5q-39 0 -71.5 12t-55 34t-35 52.5t-12.5 66.5v10t1 11h133v-10 q0 -23 13 -37t36 -14t38 14.5t20 46.5h133z" />
<glyph unicode="&#x4cf;" horiz-adv-x="292" d="M190 0h-172l132 750h172z" />
<glyph unicode="&#x4d0;" horiz-adv-x="659" d="M636 910q-5 -39 -20.5 -72.5t-41 -58.5t-60.5 -39.5t-78 -14.5q-39 0 -71.5 12t-55 34t-35 52t-12.5 66v10t1 11h133v-10q0 -23 13 -36.5t36 -13.5t38 14.5t20 45.5h133zM616 0h-180l-15 55h-232l-34 -55h-194l419 672h55zM274 193h110l-28 147z" />
<glyph unicode="&#x4d1;" horiz-adv-x="624" d="M592 755q-5 -39 -20.5 -73t-41 -59t-60.5 -39.5t-78 -14.5q-39 0 -71.5 12t-55 34t-35 52.5t-12.5 66.5v10t1 11h133v-10q0 -23 13 -37t36 -14t38 14.5t20 46.5h133zM297 503q49 0 83.5 -14.5t56.5 -40.5l7 42h172l-86 -490h-161l7 41q-50 -53 -133 -53q-49 0 -88.5 19 t-67.5 50.5t-43 73.5t-15 88q0 45 15.5 95t48 92t83 69.5t121.5 27.5zM310 349q-45 0 -74 -32t-30 -79q-1 -44 24.5 -70.5t66.5 -26.5q45 0 75 30.5t31 77.5q1 45 -25.5 72.5t-67.5 27.5z" />
<glyph unicode="&#x4d4;" horiz-adv-x="873" d="M790 0h-382v55h-209l-37 -55h-204l450 660h486l-27 -155h-291v-91h193l-25 -144h-168v-115h241zM409 193l4 199l-123 -199h119z" />
<glyph unicode="&#x4d5;" horiz-adv-x="857" d="M295 502q48 0 86.5 -13.5t64.5 -44.5q34 27 75.5 42.5t89.5 15.5q51 0 92 -17.5t70 -47t44.5 -68.5t15.5 -82q0 -28 -6 -55t-14 -47h-314q12 -29 39 -42t67 -13q36 0 69 10t65 28l55 -114q-95 -66 -201 -66q-65 0 -115 23t-82 64q-44 -45 -92.5 -66t-111.5 -21 q-36 0 -68 7t-57 23.5t-39.5 44t-14.5 67.5q0 34 12 63t38.5 50t69 33t103.5 12h101q1 3 1 9q0 25 -16.5 42t-53.5 17q-35 0 -65.5 -14.5t-64.5 -35.5l-61 115q52 41 105 61t113 20zM593 369q-35 0 -61 -21.5t-37 -59.5h176v6q0 37 -23 56t-55 19zM238 109q32 0 53.5 18.5 t27.5 50.5l1 7h-78q-21 0 -37 -7t-16 -30q0 -39 49 -39z" />
<glyph unicode="&#x4d6;" horiz-adv-x="577" d="M594 910q-5 -39 -20.5 -72.5t-41 -58.5t-60.5 -39.5t-78 -14.5q-39 0 -71.5 12t-55 34t-35 52t-12.5 66v10t1 11h133v-10q0 -23 13 -36.5t36 -13.5t38 14.5t20 45.5h133zM571 505h-286l-16 -91h204l-26 -144h-204l-20 -115h298l-27 -155h-470l116 660h458z" />
<glyph unicode="&#x4d7;" horiz-adv-x="562" d="M564 755q-5 -39 -20.5 -73t-41 -59t-60.5 -39.5t-78 -14.5q-39 0 -71.5 12t-55 34t-35 52.5t-12.5 66.5v10t1 11h133v-10q0 -23 13 -37t36 -14t38 14.5t20 46.5h133zM312 502q53 0 95 -17.5t71 -47t44.5 -68.5t15.5 -82q0 -28 -6 -54.5t-14 -46.5h-316q13 -29 40 -42.5 t68 -13.5q36 0 69 10t65 28l55 -114q-95 -66 -204 -66q-60 0 -108.5 18t-83.5 50.5t-54 76.5t-19 96q0 57 22 107t60.5 86.5t89.5 58t110 21.5zM298 369q-33 0 -58.5 -19t-37.5 -54h174q-1 35 -24 54t-54 19z" />
<glyph unicode="&#x4d8;" horiz-adv-x="738" d="M385 672q72 0 133.5 -25t106.5 -68.5t70.5 -101.5t25.5 -123q0 -59 -22 -123t-67.5 -118t-114.5 -89t-163 -35q-73 0 -130.5 22t-97 61t-60.5 92.5t-21 115.5q0 33 5 62t13 50h476q-14 59 -58 90.5t-103 31.5q-50 0 -91.5 -22.5t-76.5 -64.5l-107 104q51 63 120.5 102 t161.5 39zM357 147q57 0 100.5 26.5t66.5 73.5h-304q3 -27 15.5 -46t31 -31t42 -17.5t48.5 -5.5z" />
<glyph unicode="&#x4d9;" horiz-adv-x="562" d="M273 502q60 0 108 -20t81.5 -53.5t52 -78.5t18.5 -95q0 -56 -22 -104.5t-60.5 -84.5t-89.5 -57t-109 -21q-53 0 -95.5 17.5t-71.5 47t-44.5 68.5t-15.5 82q0 28 6 54.5t14 46.5h315q-12 29 -39.5 42.5t-65.5 13.5q-35 0 -67.5 -10t-62.5 -28l-55 114q45 33 97.5 49.5 t105.5 16.5zM265 121q32 0 58 19t38 54h-174q1 -36 23.5 -54.5t54.5 -18.5z" />
<glyph unicode="&#x4e2;" horiz-adv-x="727" d="M619 0h-172l58 330l-428 -342h-55l118 672h172l-58 -331l428 343h55zM610 745h-340l24 134h340z" />
<glyph unicode="&#x4e3;" horiz-adv-x="597" d="M499 0h-157l7 40q-26 -23 -59.5 -37.5t-76.5 -14.5q-38 0 -69 12t-54 34.5t-35.5 54t-12.5 69.5q0 24 6 57l48 275h172l-45 -258q-4 -20 -4 -33q0 -31 19.5 -47.5t48.5 -16.5q28 0 49 16.5t27 51.5l50 287h172zM522 610h-320l24 134h320z" />
<glyph unicode="&#x4e6;" horiz-adv-x="776" d="M638 910q41 0 69.5 -26.5t28.5 -67.5q0 -18 -7.5 -35t-21 -30t-31.5 -20.5t-38 -7.5q-18 0 -35.5 7.5t-31 20.5t-22 30t-8.5 35q0 20 8.5 37.5t22 30t31 19.5t35.5 7zM353 911q41 0 69.5 -26.5t28.5 -67.5q0 -18 -7.5 -35t-21 -30t-31.5 -20.5t-38 -7.5q-18 0 -35.5 7.5 t-31 20.5t-22 30t-8.5 35q0 20 8.5 37.5t22 30t31 19.5t35.5 7zM429 672q72 0 132 -24t104 -66.5t68.5 -101.5t24.5 -128q0 -77 -30 -143.5t-81.5 -115.5t-120.5 -77t-147 -28q-72 0 -132 24t-104 66.5t-68.5 101.5t-24.5 128q0 77 30 143.5t81.5 115.5t120.5 77t147 28z M417 514q-41 0 -75.5 -15t-60.5 -41t-40.5 -62.5t-14.5 -79.5q0 -39 12.5 -70.5t34 -53.5t52 -34t66.5 -12q40 0 75 15t61 41t40.5 62.5t14.5 79.5q0 39 -12.5 70.5t-34 53.5t-52 34t-66.5 12z" />
<glyph unicode="&#x4e7;" horiz-adv-x="607" d="M519 771q41 0 69.5 -26.5t28.5 -67.5q0 -18 -7.5 -35t-21 -30t-31.5 -20.5t-38 -7.5q-18 0 -35.5 7.5t-31 20.5t-22 30t-8.5 35q0 20 8.5 37.5t22 30t31 19.5t35.5 7zM254 771q41 0 69.5 -26.5t28.5 -67.5q0 -18 -7.5 -35t-21 -30t-31.5 -20.5t-38 -7.5q-18 0 -35.5 7.5 t-31 20.5t-22 30t-8.5 35q0 20 8.5 37.5t22 30t31 19.5t35.5 7zM317 502q55 0 103 -19t83 -52t55 -78.5t20 -97.5q0 -57 -23.5 -106t-63 -85t-91.5 -56t-110 -20q-56 0 -103.5 19t-82 52t-54 78t-19.5 97q0 57 23 106t62.5 85t91.5 56.5t109 20.5zM310 348q-44 0 -73 -31.5 t-30 -78.5q-1 -44 24.5 -70t65.5 -26q44 0 74 30t31 77q1 45 -25.5 72t-66.5 27z" />
<glyph unicode="&#x4e8;" horiz-adv-x="776" d="M429 672q72 0 132 -24t104 -66.5t68.5 -101.5t24.5 -128q0 -77 -30 -143.5t-81.5 -115.5t-120.5 -77t-147 -28q-72 0 -132 24t-104 66.5t-68.5 101.5t-24.5 128q0 77 30 143.5t81.5 115.5t120.5 77t147 28zM391 146q63 0 110.5 33.5t67.5 90.5h-338q13 -58 56 -91 t104 -33zM417 514q-56 0 -100 -27t-68 -73h320q-18 47 -58 73.5t-94 26.5z" />
<glyph unicode="&#x4e9;" horiz-adv-x="607" d="M317 502q55 0 103 -19t83 -52t55 -78.5t20 -97.5q0 -57 -23.5 -106t-63 -85t-91.5 -56t-110 -20q-56 0 -103.5 19t-82 52t-54 78t-19.5 97q0 57 23 106t62.5 85t91.5 56.5t109 20.5zM296 131q34 0 60.5 15.5t42.5 42.5h-197q11 -28 36 -43t58 -15zM311 359q-33 0 -59 -16 t-41 -42h194q-12 27 -37 42.5t-57 15.5z" />
<glyph unicode="&#x4ee;" horiz-adv-x="643" d="M408 149q-50 -82 -111.5 -121t-148.5 -39q-30 0 -58.5 4t-54.5 12l25 148q20 -3 35 -4t26 -1q29 0 56.5 7t49.5 28l-146 477h181l85 -299l176 299h193zM607 745h-340l24 134h340z" />
<glyph unicode="&#x4ef;" horiz-adv-x="604" d="M533 610h-320l24 134h320zM516 37q-10 -56 -34 -98.5t-59.5 -71.5t-80 -44t-94.5 -15q-33 0 -67 6.5t-67 20.5t-63 35t-55 50l100 115q38 -32 72.5 -52.5t79.5 -20.5q38 0 63.5 17.5t33.5 62.5l3 19q-24 -17 -53.5 -26t-62.5 -9q-39 0 -71 13t-54.5 35.5t-35 53 t-12.5 65.5q0 12 1.5 26.5t3.5 26.5l43 244h172l-42 -238q-1 -5 -1.5 -9.5t-0.5 -9.5q0 -27 19.5 -44.5t48.5 -17.5q27 0 49 16t27 48l45 255h172z" />
<glyph unicode="&#x4f2;" horiz-adv-x="643" d="M408 149q-50 -82 -111.5 -121t-148.5 -39q-30 0 -58.5 4t-54.5 12l25 148q20 -3 35 -4t26 -1q29 0 56.5 7t49.5 28l-146 477h181l85 -299l176 299h193zM772 880l-158 -156h-122l97 186h188zM533 880l-158 -156h-122l97 186h188z" />
<glyph unicode="&#x4f3;" horiz-adv-x="604" d="M698 750l-158 -176h-124l100 206h187zM479 750l-158 -176h-124l100 206h187zM516 37q-10 -56 -34 -98.5t-59.5 -71.5t-80 -44t-94.5 -15q-33 0 -67 6.5t-67 20.5t-63 35t-55 50l100 115q38 -32 72.5 -52.5t79.5 -20.5q38 0 63.5 17.5t33.5 62.5l3 19q-24 -17 -53.5 -26 t-62.5 -9q-39 0 -71 13t-54.5 35.5t-35 53t-12.5 65.5q0 12 1.5 26.5t3.5 26.5l43 244h172l-42 -238q-1 -5 -1.5 -9.5t-0.5 -9.5q0 -27 19.5 -44.5t48.5 -17.5q27 0 49 16t27 48l45 255h172z" />
<glyph unicode="&#x2000;" horiz-adv-x="455" />
<glyph unicode="&#x2001;" horiz-adv-x="911" />
<glyph unicode="&#x2002;" horiz-adv-x="455" />
<glyph unicode="&#x2003;" horiz-adv-x="911" />
<glyph unicode="&#x2004;" horiz-adv-x="303" />
<glyph unicode="&#x2005;" horiz-adv-x="227" />
<glyph unicode="&#x2006;" horiz-adv-x="151" />
<glyph unicode="&#x2007;" horiz-adv-x="151" />
<glyph unicode="&#x2008;" horiz-adv-x="113" />
<glyph unicode="&#x2009;" horiz-adv-x="182" />
<glyph unicode="&#x200a;" horiz-adv-x="50" />
<glyph unicode="&#x2010;" horiz-adv-x="340" d="M303 253h-260l25 144h260z" />
<glyph unicode="&#x2011;" horiz-adv-x="340" d="M303 253h-260l25 144h260z" />
<glyph unicode="&#x2012;" horiz-adv-x="340" d="M303 253h-260l25 144h260z" />
<glyph unicode="&#x2013;" horiz-adv-x="500" d="M472 253h-440l26 144h440z" />
<glyph unicode="&#x2014;" horiz-adv-x="1001" d="M952 253h-900l27 144h900z" />
<glyph unicode="&#x2018;" horiz-adv-x="315" d="M262 368h-196l113 292h134z" />
<glyph unicode="&#x2019;" horiz-adv-x="315" d="M233 368h-134l51 292h196z" />
<glyph unicode="&#x201a;" horiz-adv-x="315" d="M142 -147h-134l51 292h196z" />
<glyph unicode="&#x201c;" horiz-adv-x="587" d="M534 368h-196l113 292h134zM262 368h-196l113 292h134z" />
<glyph unicode="&#x201d;" horiz-adv-x="587" d="M505 368h-134l51 292h196zM233 368h-134l51 292h196z" />
<glyph unicode="&#x201e;" horiz-adv-x="586" d="M413 -147h-134l51 292h196zM142 -147h-134l51 292h196z" />
<glyph unicode="&#x2026;" horiz-adv-x="800" d="M377 212q24 0 44.5 -9t35 -24t23 -35.5t8.5 -43.5q0 -24 -8.5 -44.5t-23 -35.5t-35 -23.5t-44.5 -8.5q-51 0 -82.5 32t-31.5 80q0 47 31.5 79.5t82.5 32.5zM112 212q24 0 44.5 -9t35 -24t23 -35.5t8.5 -43.5q0 -24 -8.5 -44.5t-23 -35.5t-35 -23.5t-44.5 -8.5 q-51 0 -82.5 32t-31.5 80q0 47 31.5 79.5t82.5 32.5zM642 212q24 0 44.5 -9t35 -24t23 -35.5t8.5 -43.5q0 -24 -8.5 -44.5t-23 -35.5t-35 -23.5t-44.5 -8.5q-51 0 -82.5 32t-31.5 80q0 47 31.5 79.5t82.5 32.5z" />
<glyph unicode="&#x202f;" horiz-adv-x="182" />
<glyph unicode="&#x2039;" horiz-adv-x="363" d="M369 419l-159 -152l106 -148l-119 -90l-172 222l8 45l239 223z" />
<glyph unicode="&#x203a;" horiz-adv-x="363" d="M350 297l-8 -45l-239 -223l-97 100l158 152l-105 148l119 90z" />
<glyph unicode="&#x205f;" horiz-adv-x="227" />
<glyph unicode="&#x20ac;" horiz-adv-x="673" d="M395 192h-102q34 -47 99 -47q40 0 73 17.5t53 42.5l108 -97q-38 -57 -103 -89t-145 -32q-54 0 -99.5 15t-81 42t-60.5 64.5t-38 83.5h-106l20 114h72q0 21 3 44h-67l20 114h78q17 41 43.5 78.5t64.5 66t88 45t113 16.5q50 0 90.5 -10.5t72.5 -29t55.5 -43t38.5 -51.5 l-123 -88q-17 26 -52.5 45t-81.5 19q-37 0 -64 -13.5t-47 -34.5h202l-52 -114h-202q-2 -12 -3 -22.5t-1 -21.5h186z" />
<glyph unicode="&#x2122;" horiz-adv-x="1000" d="M928 211h-141l25 141l-89 -84h-44l-58 87l-25 -144h-142l80 457h45l148 -226l237 226h44zM454 532h-126l-56 -321h-141l56 321h-126l23 128h393z" />
<glyph unicode="&#x25fc;" horiz-adv-x="490" d="M0 490h490v-490h-490v490z" />
<glyph horiz-adv-x="330" d="M413 880l-169 -156h-129l86 186h217z" />
<glyph horiz-adv-x="433" d="M521 910q-5 -39 -20.5 -72.5t-41 -58.5t-60.5 -39.5t-78 -14.5q-39 0 -71.5 12t-55 34t-35 52t-12.5 66v10t1 11h133v-10q0 -23 13 -36.5t36 -13.5t38 14.5t20 45.5h133z" />
<glyph horiz-adv-x="543" d="M515 910q41 0 69.5 -26.5t28.5 -67.5q0 -18 -7.5 -35t-21 -30t-31.5 -20.5t-38 -7.5q-18 0 -35.5 7.5t-31 20.5t-22 30t-8.5 35q0 20 8.5 37.5t22 30t31 19.5t35.5 7zM230 911q41 0 69.5 -26.5t28.5 -67.5q0 -18 -7.5 -35t-21 -30t-31.5 -20.5t-38 -7.5q-18 0 -35.5 7.5 t-31 20.5t-22 30t-8.5 35q0 20 8.5 37.5t22 30t31 19.5t35.5 7z" />
<glyph horiz-adv-x="312" d="M367 724h-122l-110 156l6 30h194z" />
<glyph horiz-adv-x="551" d="M634 880l-158 -156h-122l97 186h188zM395 880l-158 -156h-122l97 186h188z" />
<glyph horiz-adv-x="400" d="M459 745h-340l24 134h340z" />
</font>
</defs>
</svg>
